<svg xmlns="http://www.w3.org/2000/svg" width="18" height="18"><path fill="#F0F3FA" d="M0 0h18v18H0z"/><path fill="url(#a)" d="M14 9A5 5 0 1 1 4 9a5 5 0 0 1 10 0z"/><path fill="#043A84" fill-rule="evenodd" d="M9 13.5a4.5 4.5 0 1 0 0-9 4.5 4.5 0 0 0 0 9zm0 .5A5 5 0 1 0 9 4a5 5 0 0 0 0 10z"/><ellipse cx="9" cy="6.75" fill="url(#b)" rx="3.53" ry="2.45"/><path fill="#E1E1E1" d="M8.42 8h2l-.66 2h-2l.66-2zM5.49 8h2l-.72 2h-2l.72-2zm7.9 0h-2l-.64 2h2l.64-2z"/><defs><linearGradient id="a" x1="9" x2="9" y1="4" y2="14" gradientUnits="userSpaceOnUse"><stop offset=".47" stop-color="#043A84"/><stop offset="1" stop-color="#74B6EC"/></linearGradient><linearGradient id="b" x1="9" x2="9" y1="4.29" y2="9.2" gradientUnits="userSpaceOnUse"><stop offset=".08" stop-color="#7C96BC"/><stop offset=".94" stop-color="#0F468E"/></linearGradient></defs></svg>