<svg xmlns="http://www.w3.org/2000/svg" width="135" height="40"><path fill="rgba(255, 255, 255, 0)" d="M130.2 40H4.73A4.74 4.74 0 0 1 0 35.27V4.73A4.73 4.73 0 0 1 4.73 0H130.2a4.8 4.8 0 0 1 4.8 4.73v30.54a4.8 4.8 0 0 1-4.8 4.73z"/><path fill="rgba(255, 255, 255, 0)" d="M134.03 35.27a3.83 3.83 0 0 1-3.83 3.83H4.73a3.83 3.83 0 0 1-3.84-3.83V4.72A3.84 3.84 0 0 1 4.73.9H130.2a3.83 3.83 0 0 1 3.83 3.83v30.55z"/><path fill="#FFF" d="M30.13 19.78c-.03-3.22 2.64-4.79 2.76-4.86a5.94 5.94 0 0 0-4.68-2.53c-1.96-.2-3.87 1.18-4.87 1.18-1.03 0-2.57-1.16-4.23-1.12a6.23 6.23 0 0 0-5.24 3.2c-2.27 3.91-.58 9.68 1.6 12.85 1.08 1.55 2.35 3.29 4 3.23 1.63-.07 2.24-1.04 4.2-1.04 1.95 0 2.52 1.04 4.2 1 1.75-.03 2.85-1.56 3.9-3.13a12.83 12.83 0 0 0 1.78-3.62 5.6 5.6 0 0 1-3.42-5.16zm-3.2-9.47a5.7 5.7 0 0 0 1.3-4.1 5.81 5.81 0 0 0-3.75 1.95 5.43 5.43 0 0 0-1.34 3.94 4.8 4.8 0 0 0 3.79-1.8zM53.65 31.5h-2.28l-1.24-3.9h-4.32l-1.19 3.9h-2.21l4.28-13.3h2.65l4.3 13.3zm-3.9-5.54-1.12-3.48c-.12-.35-.34-1.2-.67-2.5h-.04a96.75 96.75 0 0 1-.63 2.5l-1.1 3.48h3.57zm14.91.63c0 1.63-.44 2.92-1.32 3.87a3.87 3.87 0 0 1-2.94 1.26c-1.27 0-2.17-.45-2.73-1.36h-.04v5.05H55.5V25.07c0-1.03-.03-2.08-.08-3.16h1.88l.12 1.52h.03a3.55 3.55 0 0 1 3.24-1.72c1.14 0 2.08.45 2.84 1.34.75.9 1.13 2.08 1.13 3.54zm-2.17.08c0-.94-.21-1.7-.63-2.31A2.18 2.18 0 0 0 60 23.4c-.52 0-1 .17-1.43.52-.43.35-.7.8-.84 1.37-.06.27-.1.48-.1.65v1.6c0 .7.22 1.3.65 1.77s.98.72 1.66.72c.8 0 1.43-.3 1.88-.92.45-.62.67-1.44.67-2.45zm13.2-.08c0 1.63-.43 2.92-1.31 3.87a3.86 3.86 0 0 1-2.95 1.26c-1.26 0-2.17-.45-2.72-1.36h-.04v5.05h-2.13V25.07c0-1.03-.03-2.08-.08-3.16h1.87l.12 1.52h.04a3.55 3.55 0 0 1 3.24-1.72c1.13 0 2.08.45 2.83 1.34a5.3 5.3 0 0 1 1.14 3.54zm-2.16.08c0-.94-.21-1.7-.64-2.31a2.18 2.18 0 0 0-1.85-.95 2.22 2.22 0 0 0-1.43.52c-.43.35-.71.8-.84 1.37-.07.27-.1.48-.1.65v1.6c0 .7.21 1.3.64 1.77.43.48.98.72 1.67.72.8 0 1.43-.3 1.88-.92.44-.62.67-1.44.67-2.45zm14.5 1.1c0 1.13-.38 2.05-1.17 2.77a5.24 5.24 0 0 1-3.63 1.16 6.35 6.35 0 0 1-3.45-.83l.5-1.78c.93.57 1.96.85 3.08.85.8 0 1.43-.18 1.88-.54.44-.36.67-.85.67-1.45 0-.54-.19-1-.56-1.37a5.14 5.14 0 0 0-1.83-1.03c-2.33-.87-3.5-2.14-3.5-3.81 0-1.1.41-2 1.23-2.7.81-.69 1.9-1.04 3.26-1.04 1.2 0 2.21.21 3.02.63l-.54 1.74c-.75-.4-1.6-.61-2.54-.61-.75 0-1.34.18-1.76.55a1.58 1.58 0 0 0-.53 1.2c0 .53.2.97.6 1.31.36.32 1 .66 1.94 1.03 1.15.46 1.99 1 2.53 1.62.54.61.8 1.38.8 2.3zm7.06-4.26h-2.35v4.66c0 1.18.41 1.77 1.24 1.77.38 0 .7-.03.95-.1l.06 1.62c-.42.16-.97.24-1.66.24-.84 0-1.5-.26-1.98-.77-.47-.51-.7-1.38-.7-2.59v-4.83h-1.4v-1.6h1.4v-1.76l2.09-.63v2.39h2.35v1.6zm10.6 3.12c0 1.47-.42 2.68-1.26 3.63a4.51 4.51 0 0 1-3.52 1.46c-1.4 0-2.53-.47-3.36-1.4s-1.26-2.11-1.26-3.53c0-1.5.43-2.7 1.3-3.66a4.47 4.47 0 0 1 3.48-1.42c1.4 0 2.54.47 3.4 1.4.81.91 1.22 2.08 1.22 3.52zm-2.21.07c0-.89-.19-1.65-.57-2.28a2.1 2.1 0 0 0-1.92-1.15c-.85 0-1.5.38-1.95 1.15a4.4 4.4 0 0 0-.57 2.32c0 .88.18 1.64.57 2.27.46.77 1.1 1.15 1.93 1.15.82 0 1.46-.39 1.92-1.17.4-.64.59-1.41.59-2.3zm9.14-2.92a3.7 3.7 0 0 0-.67-.06c-.75 0-1.33.29-1.74.85a3.2 3.2 0 0 0-.53 1.9v5.03h-2.13l.02-6.57c0-1.1-.03-2.11-.08-3.02h1.85l.08 1.83h.06c.23-.63.58-1.13 1.07-1.52a2.58 2.58 0 0 1 1.54-.5c.2 0 .37 0 .53.03v2.03zm9.54 2.47a5 5 0 0 1-.08.97h-6.4c.03.95.34 1.67.93 2.17.54.45 1.24.67 2.1.67.94 0 1.8-.15 2.58-.45l.33 1.48a8 8 0 0 1-3.21.6 4.66 4.66 0 0 1-3.5-1.32 4.85 4.85 0 0 1-1.28-3.53c0-1.44.4-2.65 1.18-3.6a4.09 4.09 0 0 1 3.36-1.55c1.38 0 2.43.52 3.14 1.54.56.82.85 1.82.85 3.02zm-2.04-.55a2.9 2.9 0 0 0-.41-1.64c-.37-.6-.94-.89-1.7-.89-.7 0-1.26.29-1.7.87a3.18 3.18 0 0 0-.63 1.66h4.44zM43.42 7.27c.23-.13.49-.25.77-.34a3.27 3.27 0 0 1 1.02-.14c.63 0 1.12.15 1.48.44s.55.7.55 1.2c0 .4-.13.74-.37 1.02s-.55.45-.92.54v.03c.2.03.4.09.58.17.19.08.35.19.49.32a1.47 1.47 0 0 1 .45 1.08c0 .36-.07.67-.22.91s-.34.45-.57.6c-.24.16-.5.27-.8.34a3.77 3.77 0 0 1-1.79 0c-.3-.06-.58-.17-.84-.32l.26-.8c.17.08.39.16.65.24.27.08.53.12.8.12.45 0 .8-.1 1.04-.3a1 1 0 0 0 .36-.8.99.99 0 0 0-.14-.57 1.06 1.06 0 0 0-.38-.34 1.66 1.66 0 0 0-.52-.17 3.43 3.43 0 0 0-.57-.05h-.44v-.8h.44c.2 0 .39-.03.56-.08.17-.05.32-.12.45-.22s.22-.2.3-.33a.9.9 0 0 0 .1-.44c0-.29-.1-.52-.31-.68a1.3 1.3 0 0 0-.84-.25c-.24 0-.48.04-.72.12a5.3 5.3 0 0 0-.64.25l-.23-.75zm8.34 6.16-.08-.54h-.03a1.6 1.6 0 0 1-1.38.65 1.53 1.53 0 0 1-1.04-.4 1.28 1.28 0 0 1-.3-.43 1.4 1.4 0 0 1-.1-.56c0-.59.24-1.03.71-1.32a3.9 3.9 0 0 1 2.04-.44v-.09c0-.62-.32-.93-.98-.93-.46 0-.87.12-1.23.35l-.2-.69a3 3 0 0 1 1.6-.4c1.24 0 1.86.64 1.86 1.94v1.74c0 .48.02.86.07 1.12h-.95zm-.15-2.34c-.58 0-1.02.07-1.3.22a.76.76 0 0 0-.44.73c0 .24.07.43.2.55a.73.73 0 0 0 .52.18 1.05 1.05 0 0 0 .7-.27.99.99 0 0 0 .23-.3.87.87 0 0 0 .09-.39v-.72zm6.07-2.37v.86h-1.96v3.85h-1.04V8.72h3zm6 2.3c0 .37-.06.72-.16 1.03a2.39 2.39 0 0 1-.43.8 1.93 1.93 0 0 1-1.5.69c-.63 0-1.08-.22-1.35-.67h-.02v2.48h-1.05v-5.08a38.7 38.7 0 0 0-.03-1.55h.92l.06.74h.02c.35-.56.88-.84 1.59-.84a1.73 1.73 0 0 1 1.38.67c.18.2.32.46.42.75.1.3.15.62.15.98zm-1.07.04c0-.24-.03-.45-.08-.65s-.14-.36-.24-.5-.24-.25-.4-.33a1.07 1.07 0 0 0-.5-.12c-.15 0-.3.03-.44.1s-.27.15-.37.26a1.26 1.26 0 0 0-.36.89v.78c0 .18.03.34.09.49.05.15.13.28.23.39s.22.2.36.25c.14.07.29.1.46.1.4 0 .7-.15.92-.45s.33-.7.33-1.21zm6.7-2.34-1.2 3.27c-.28.77-.56 1.4-.83 1.9-.27.5-.52.86-.77 1.09-.36.32-.75.52-1.15.59l-.26-.89c.28-.07.53-.2.78-.41.25-.2.44-.47.6-.78a.6.6 0 0 0 .07-.21.88.88 0 0 0-.06-.22l-1.7-4.34h1.15l.89 2.63a5.88 5.88 0 0 1 .28.93h.02a6.41 6.41 0 0 0 .1-.4l.16-.54.8-2.62h1.11zm1.8 1.96h.5c.35 0 .62-.07.82-.2s.29-.28.29-.47a.54.54 0 0 0-.25-.47c-.16-.11-.4-.17-.68-.17-.2 0-.38.03-.57.09a2.98 2.98 0 0 0-.53.23L70.42 9a2.9 2.9 0 0 1 .81-.3 4.01 4.01 0 0 1 .81-.09c.21 0 .43.02.65.06.21.05.4.12.57.22s.3.23.41.4c.11.15.16.35.16.6 0 .14-.03.27-.08.39a1.02 1.02 0 0 1-.24.3 1.25 1.25 0 0 1-.32.2 1.74 1.74 0 0 1-.36.13v.03a1.877 1.877 0 0 1 .85.34c.1.1.2.21.27.34.07.14.1.29.1.45 0 .28-.06.52-.2.7a1.46 1.46 0 0 1-.52.45 2.51 2.51 0 0 1-.69.24 3.94 3.94 0 0 1-1.6-.02 2.71 2.71 0 0 1-.77-.29l.28-.69a2.44 2.44 0 0 0 1.24.32c.35 0 .63-.07.82-.2a.63.63 0 0 0 .28-.52c0-.14-.03-.25-.1-.35s-.15-.17-.27-.23a1.33 1.33 0 0 0-.4-.12 3.44 3.44 0 0 0-.5-.03h-.5v-.66zm5.6-1.96v1.67a22.61 22.61 0 0 1-.06 1.98l.02.02.36-.72.36-.72 1.17-2.23h1.35v4.71h-.99v-1.67a24.38 24.38 0 0 1 .08-2.1h-.05a6.95 6.95 0 0 1-.33.75l-.32.66a213.92 213.92 0 0 0-1.23 2.36h-1.35V8.72h1zm8.73 0v.86h-1.43v3.85h-1.03V9.58h-1.43v-.86h3.9zm5.35 2.13-.01.26a1.75 1.75 0 0 1-.03.22h-3.14c.01.44.15.79.42 1.03s.62.36 1.06.36c.46 0 .88-.07 1.27-.22l.17.73a3.95 3.95 0 0 1-2.57.12 2.04 2.04 0 0 1-.74-.48 2.12 2.12 0 0 1-.46-.75 3.05 3.05 0 0 1 0-1.98c.1-.3.26-.57.45-.8a2.11 2.11 0 0 1 1.62-.73 2 2 0 0 1 .81.16c.24.1.45.26.62.46.17.2.3.43.4.7.08.28.13.59.13.92zm-1-.27c0-.37-.09-.67-.27-.9s-.43-.34-.77-.34c-.3 0-.56.12-.77.35s-.34.53-.37.9h2.18zM95 8.76a13 13 0 0 1 2.26-.07c.25.02.48.07.7.15.22.08.4.2.55.36s.23.39.23.66a.92.92 0 0 1-.3.68 1.16 1.16 0 0 1-.3.21c-.1.06-.22.1-.35.12l.01.03c.34.06.62.18.84.37s.32.45.32.78-.1.59-.27.78c-.19.2-.4.34-.67.44a3.28 3.28 0 0 1-.84.18 9.44 9.44 0 0 1-.8.04 13.54 13.54 0 0 1-1.38-.06V8.76zm1 1.88h.54c.16 0 .32-.01.46-.03.15-.03.27-.06.38-.11a.65.65 0 0 0 .26-.2.48.48 0 0 0 .1-.29.5.5 0 0 0-.27-.47c-.18-.1-.46-.15-.84-.15l-.29.01-.33.03v1.21zm0 2.08.33.03a3.92 3.92 0 0 0 .74-.02 1.45 1.45 0 0 0 .41-.1.75.75 0 0 0 .3-.23.58.58 0 0 0 .11-.37.56.56 0 0 0-.36-.56 2.5 2.5 0 0 0-.97-.15h-.55v1.4z"/></svg>