<svg xmlns="http://www.w3.org/2000/svg" width="135" height="40" fill="none"><path fill="#fff" d="M106.94 30.19h1.86V17.6h-1.86v12.58zm16.8-8.05-2.14 5.45h-.06l-2.22-5.45h-2.01l3.33 7.62-1.9 4.24h1.95l5.13-11.86h-2.08zm-10.58 6.62c-.61 0-1.46-.3-1.46-1.07 0-.97 1.06-1.34 1.97-1.34.83 0 1.21.18 1.71.42a2.27 2.27 0 0 1-2.22 1.99zm.23-6.9c-1.36 0-2.75.6-3.33 1.93l1.65.7c.36-.7 1.02-.93 1.7-.93.97 0 1.95.59 1.97 1.62v.13a4.1 4.1 0 0 0-1.95-.48c-1.78 0-3.6.98-3.6 2.83 0 1.68 1.47 2.77 3.1 2.77 1.26 0 1.95-.57 2.39-1.23h.06v.97h1.8v-4.83c0-2.23-1.66-3.47-3.8-3.47zm-11.54 1.81H99.2v-4.31h2.65c1.4 0 2.2 1.16 2.2 2.16 0 .97-.8 2.15-2.2 2.15zm-.04-6.06h-4.47v12.58h1.86v-4.77h2.6c2.07 0 4.1-1.5 4.1-3.9s-2.03-3.91-4.1-3.91zM77.43 28.76c-1.3 0-2.37-1.08-2.37-2.58s1.08-2.6 2.37-2.6c1.27 0 2.27 1.1 2.27 2.6s-1 2.58-2.27 2.58zm2.14-5.92h-.07a2.94 2.94 0 0 0-2.24-.95 4.24 4.24 0 0 0-4.07 4.3c0 2.4 1.95 4.26 4.07 4.26a2.9 2.9 0 0 0 2.24-.97h.07v.61c0 1.64-.87 2.51-2.27 2.51-1.15 0-1.86-.82-2.15-1.52l-1.62.68a4.05 4.05 0 0 0 3.77 2.53c2.19 0 4.04-1.3 4.04-4.46v-7.68h-1.77v.7zm3.06 7.35h1.87V17.6h-1.87v12.58zm4.62-4.15a2.34 2.34 0 0 1 2.23-2.5c.74 0 1.37.37 1.57.91l-3.8 1.59zm5.8-1.43c-.35-.95-1.43-2.72-3.64-2.72-2.19 0-4.01 1.73-4.01 4.28 0 2.4 1.8 4.28 4.22 4.28 1.95 0 3.08-1.2 3.55-1.9l-1.45-.97a2.43 2.43 0 0 1-2.1 1.18c-.95 0-1.63-.44-2.06-1.3l5.69-2.36-.2-.49zm-45.3-1.4V25h4.31a3.8 3.8 0 0 1-.98 2.3 4.4 4.4 0 0 1-3.34 1.32 4.75 4.75 0 0 1-4.73-4.83A4.75 4.75 0 0 1 51 20.27l1.27-1.28a6.27 6.27 0 0 0-4.53-1.84 6.72 6.72 0 0 0-6.7 6.65 6.72 6.72 0 0 0 6.7 6.65c1.97 0 3.45-.65 4.61-1.87a6.02 6.02 0 0 0 1.56-4.24c0-.43-.03-.81-.1-1.14h-6.07zm11.07 5.55c-1.29 0-2.4-1.07-2.4-2.6s1.11-2.59 2.4-2.59c1.3 0 2.4 1.06 2.4 2.6 0 1.52-1.1 2.6-2.4 2.6zm0-6.87a4.2 4.2 0 0 0-4.27 4.28 4.22 4.22 0 0 0 4.27 4.28 4.22 4.22 0 0 0 4.27-4.28 4.2 4.2 0 0 0-4.27-4.28zm9.32 6.87c-1.3 0-2.4-1.07-2.4-2.6s1.1-2.59 2.4-2.59c1.28 0 2.4 1.06 2.4 2.6 0 1.52-1.12 2.6-2.4 2.6zm0-6.87a4.2 4.2 0 0 0-4.27 4.28 4.21 4.21 0 0 0 4.27 4.28 4.22 4.22 0 0 0 4.27-4.28 4.2 4.2 0 0 0-4.27-4.28z"/><path fill="url(#a)" d="M10.44 7.54a2 2 0 0 0-.46 1.4v22.12a2 2 0 0 0 .46 1.4l.07.07L22.9 20.15v-.29L10.51 7.47l-.07.07z"/><path fill="url(#b)" d="m27 24.28-4.1-4.13v-.29l4.1-4.14.09.05L32 18.56c1.4.79 1.4 2.09 0 2.89l-4.89 2.78-.11.05z"/><path fill="url(#c)" d="M27.12 24.22 22.9 20 10.44 32.46a1.63 1.63 0 0 0 2.08.06l14.61-8.3"/><path fill="url(#d)" d="m27.12 15.78-14.61-8.3a1.63 1.63 0 0 0-2.08.06L22.9 20l4.22-4.22z"/><path fill="#000" d="m27 24.13-14.49 8.25a1.67 1.67 0 0 1-2 0l-.07.07.07.07a1.66 1.66 0 0 0 2 0l14.61-8.3-.12-.09z" opacity=".2"/><path fill="#000" d="M10.44 32.32a2 2 0 0 1-.46-1.4v.15a2 2 0 0 0 .46 1.4l.07-.07-.07-.08zM32 21.3l-5 2.83.09.09L32 21.44A1.75 1.75 0 0 0 33 20a1.86 1.86 0 0 1-1 1.3z" opacity=".12"/><path fill="#fff" d="M12.51 7.62 32 18.7a1.86 1.86 0 0 1 1 1.3 1.75 1.75 0 0 0-1-1.44L12.51 7.48c-1.4-.79-2.54-.13-2.54 1.47v.15c.03-1.61 1.15-2.27 2.54-1.48z" opacity=".25"/><path fill="#fff" stroke="#fff" stroke-miterlimit="10" stroke-width=".2" d="M42.11 14.27h-.74v-2H42a2.86 2.86 0 0 0 .76-2.3V7h4v5.26h.67v2h-.74V13h-4.58v1.27zM43.5 10a4 4 0 0 1-.57 2.3h3V7.74H43.5V10zm9.91 2.22a3.12 3.12 0 0 1-4.4 0 3.24 3.24 0 0 1 0-4.45 3.1 3.1 0 0 1 4.4 0 3.23 3.23 0 0 1 0 4.45zm-3.83-.5a2.31 2.31 0 0 0 3.26 0 2.56 2.56 0 0 0 0-3.44 2.31 2.31 0 0 0-3.26 0 2.56 2.56 0 0 0 0 3.44zm8.6 1.41A3.06 3.06 0 0 1 55.06 10a3.06 3.06 0 0 1 3.12-3.13 2.77 2.77 0 0 1 2.2 1l-.54.52a2 2 0 0 0-1.67-.76 2.27 2.27 0 0 0-1.66.66 2.57 2.57 0 0 0 0 3.47 2.27 2.27 0 0 0 1.66.66 2.37 2.37 0 0 0 1.83-.89l.54.54a2.92 2.92 0 0 1-2.36 1.06zm5.5-.13h-.77V7.74h-1.68V7h4.12v.74h-1.67V13zm6.97-6-2.27 5.06A1.51 1.51 0 0 1 67 13.13c-.2 0-.41-.05-.6-.13l.2-.71c.12.07.26.1.4.11.15.01.3-.02.42-.1.12-.1.21-.23.27-.38l.22-.48-2-4.43h.91l1.48 3.44L69.74 7h.91zm.87 6V7h4.34v6h-.77V7.74h-2.8V13h-.77zm5.71 0V7H78v2.57h3V7h.77v6H81v-2.71h-3V13h-.77zm10.83-.78a3.12 3.12 0 0 1-4.4 0 3.24 3.24 0 0 1 0-4.45 3.1 3.1 0 0 1 4.4 0 3.23 3.23 0 0 1 0 4.45zm-3.83-.5a2.31 2.31 0 0 0 3.26 0 2.56 2.56 0 0 0 0-3.44 2.31 2.31 0 0 0-3.26 0 2.56 2.56 0 0 0 0 3.44zM92.09 13V7h2.17a1.76 1.76 0 0 1 1.61.99 1.51 1.51 0 0 1-.09 1.39c-.15.22-.35.39-.59.49.29.1.54.28.73.52.2.24.3.55.29.86a1.57 1.57 0 0 1-.54 1.22c-.35.32-.8.5-1.28.49l-2.3.04zm.77-3.43h1.4a.9.9 0 0 0 .7-.29A.89.89 0 0 0 95 8a.86.86 0 0 0-.67-.29H92.9l-.04 1.86zm0 2.69h1.55a.92.92 0 0 0 .72-.31 1 1 0 0 0 .28-.68 1 1 0 0 0-1-1h-1.52l-.03 1.99z"/><defs><linearGradient id="a" x1="21.8" x2="5.02" y1="8.71" y2="25.49" gradientUnits="userSpaceOnUse"><stop stop-color="#00A0FF"/><stop offset=".01" stop-color="#00A1FF"/><stop offset=".26" stop-color="#00BEFF"/><stop offset=".51" stop-color="#00D2FF"/><stop offset=".76" stop-color="#00DFFF"/><stop offset="1" stop-color="#00E3FF"/></linearGradient><linearGradient id="b" x1="33.83" x2="9.64" y1="20" y2="20" gradientUnits="userSpaceOnUse"><stop stop-color="#FFE000"/><stop offset=".41" stop-color="#FFBD00"/><stop offset=".78" stop-color="orange"/><stop offset="1" stop-color="#FF9C00"/></linearGradient><linearGradient id="c" x1="24.83" x2="2.07" y1="22.3" y2="45.05" gradientUnits="userSpaceOnUse"><stop stop-color="#FF3A44"/><stop offset="1" stop-color="#C31162"/></linearGradient><linearGradient id="d" x1="7.3" x2="17.46" y1=".18" y2="10.34" gradientUnits="userSpaceOnUse"><stop stop-color="#32A071"/><stop offset=".07" stop-color="#2DA771"/><stop offset=".48" stop-color="#15CF74"/><stop offset=".8" stop-color="#06E775"/><stop offset="1" stop-color="#00F076"/></linearGradient></defs></svg>