<svg xmlns="http://www.w3.org/2000/svg" width="18" height="18"><path fill="url(#a)" d="M0 0h18v18H0z"/><path fill="#FF144B" d="M7.643 5.072c.014 0 .025-.01.025-.024 0-.013-.011-.023-.025-.023-.014 0-.025.01-.025.023s.011.024.025.024zm.863.007c.018 0 .032-.014.032-.03 0-.017-.014-.03-.032-.03-.018 0-.032.013-.032.03 0 .016.014.03.032.03zm.863-.018c.007 0 .014-.006.014-.013 0-.007-.007-.013-.014-.013-.008 0-.015.006-.015.013 0 .007.007.013.015.013zm-2.159 0c.009 0 .015-.006.015-.013 0-.007-.006-.013-.014-.013s-.015.006-.015.013c0 .007.007.013.015.013zm.863.439c.03 0 .054-.022.054-.05 0-.028-.024-.05-.054-.05s-.053.022-.053.05c0 .028.024.05.053.05zm.864.01c.036 0 .065-.027.065-.06 0-.034-.03-.06-.065-.06-.036 0-.064.026-.064.06 0 .033.028.06.064.06zm.863-.013c.028 0 .05-.021.05-.047s-.022-.047-.05-.047c-.028 0-.05.02-.05.047 0 .026.022.047.05.047zm.863-.027c.011 0 .021-.009.021-.02 0-.011-.01-.02-.021-.02-.012 0-.022.009-.022.02 0 .011.01.02.022.02zm-2.591.45c.031 0 .057-.025.057-.054 0-.03-.026-.054-.057-.054-.032 0-.058.024-.058.054s.026.053.058.053zm.863.036c.054 0 .097-.04.097-.09 0-.05-.043-.091-.097-.091-.053 0-.096.04-.096.09 0 .05.043.091.096.091zm.863 0c.054 0 .097-.04.097-.09 0-.05-.043-.091-.097-.091-.053 0-.097.04-.097.09 0 .05.044.091.097.091zm.862-.026c.038 0 .069-.029.069-.064s-.03-.064-.068-.064c-.038 0-.068.029-.068.064s.03.064.068.064zm.864-.034c.018 0 .032-.013.032-.03s-.014-.03-.032-.03c-.018 0-.032.013-.032.03s.014.03.032.03zm-2.156.488c.068 0 .122-.051.122-.114 0-.064-.054-.115-.122-.115a.118.118 0 0 0-.121.115c0 .063.054.114.121.114zm.863.01c.073 0 .133-.056.133-.124 0-.069-.06-.125-.133-.125-.073 0-.133.056-.133.125 0 .068.06.124.133.124zm.863-.03c.055 0 .1-.042.1-.094s-.045-.094-.1-.094c-.055 0-.1.042-.1.094s.045.094.1.094zm.863-.037c.033 0 .06-.026.06-.057a.058.058 0 0 0-.06-.057c-.034 0-.061.025-.061.057 0 .031.027.057.06.057zm-2.589.46c.07 0 .126-.053.126-.118s-.056-.118-.126-.118c-.069 0-.125.053-.125.118s.056.118.125.118zm.863.037c.091 0 .165-.07.165-.155 0-.085-.074-.155-.165-.155-.091 0-.165.07-.165.155 0 .086.074.155.165.155zm.863-.01c.085 0 .154-.065.154-.145 0-.08-.07-.145-.154-.145-.085 0-.154.065-.154.145 0 .08.069.145.154.145zm.863-.044c.059 0 .107-.045.107-.1a.104.104 0 0 0-.107-.102c-.06 0-.108.045-.108.101 0 .056.048.1.108.1zm.863-.044c.033 0 .06-.025.06-.057a.059.059 0 0 0-.06-.057c-.034 0-.062.026-.062.057 0 .032.028.057.061.057zm-3.023.49c.081 0 .147-.061.147-.137 0-.077-.066-.138-.147-.138-.081 0-.147.061-.147.138 0 .076.066.137.147.137zm.863.034c.1 0 .182-.077.182-.172 0-.094-.081-.171-.182-.171-.101 0-.183.077-.183.171 0 .095.082.172.183.172zm.863 0c.1 0 .182-.077.182-.172 0-.094-.082-.171-.182-.171-.101 0-.183.077-.183.171 0 .095.082.172.183.172zm.862-.05c.072 0 .13-.055.13-.121 0-.067-.059-.121-.13-.121-.07 0-.129.054-.129.12 0 .067.058.122.13.122zm.863-.05a.073.073 0 0 0 .075-.071c0-.04-.033-.07-.075-.07-.041 0-.075.03-.075.07 0 .039.034.07.075.07zm.863-.048c.014 0 .025-.01.025-.023s-.011-.024-.025-.024c-.014 0-.025.01-.025.024 0 .013.011.023.025.023zm.864 1.618A.025.025 0 0 0 15 8.696a.025.025 0 0 0-.025-.024c-.014 0-.025.01-.025.024 0 .013.011.023.025.023zm-4.313-1.063c.101 0 .183-.077.183-.171 0-.095-.082-.172-.183-.172-.1 0-.182.077-.182.172 0 .094.082.171.182.171zm.863 0c.101 0 .183-.077.183-.171 0-.095-.082-.172-.183-.172-.1 0-.183.077-.183.172 0 .094.082.171.183.171zm.863-.003c.099 0 .179-.075.179-.168 0-.093-.08-.168-.18-.168-.098 0-.178.075-.178.168 0 .093.08.168.179.168zm.862-.061c.064 0 .115-.048.115-.107a.11.11 0 0 0-.114-.108c-.064 0-.115.048-.115.108s.051.107.115.107zm.864-.053c.031 0 .057-.024.057-.054s-.026-.054-.057-.054c-.032 0-.058.024-.058.054s.026.054.058.054zm-7.334.383c.01 0 .018-.008.018-.017 0-.01-.008-.017-.018-.017-.01 0-.018.008-.018.017 0 .01.008.017.018.017zm.863.02c.022 0 .04-.017.04-.037 0-.02-.018-.037-.04-.037-.022 0-.04.017-.04.037 0 .02.018.037.04.037zm.863.037c.043 0 .079-.033.079-.074 0-.04-.036-.074-.08-.074a.076.076 0 0 0-.078.074c0 .04.035.074.079.074zm.862.037c.066 0 .119-.05.119-.111s-.053-.111-.119-.111c-.065 0-.118.05-.118.11 0 .062.053.112.118.112zm.863.037c.087 0 .158-.066.158-.148 0-.082-.07-.148-.158-.148-.087 0-.158.066-.158.148 0 .082.071.148.158.148zm1.297.023c.101 0 .183-.076.183-.171 0-.095-.082-.172-.183-.172-.1 0-.183.077-.183.172 0 .095.082.171.183.171zm.86 0c.1 0 .182-.076.182-.171a.177.177 0 0 0-.182-.172c-.101 0-.183.077-.183.172 0 .095.082.171.183.171zm.862-.03c.084 0 .151-.063.151-.141 0-.078-.067-.141-.15-.141-.083 0-.15.063-.15.141 0 .078.067.141.15.141zm.864-.064c.045 0 .082-.034.082-.077s-.037-.077-.082-.077c-.046 0-.083.034-.083.077s.037.077.082.077zm-1.726.481c.1 0 .182-.077.182-.172 0-.095-.081-.171-.182-.171-.101 0-.183.076-.183.171 0 .095.082.172.183.172zm.862 0c.101 0 .183-.077.183-.172 0-.095-.082-.171-.182-.171-.101 0-.183.076-.183.171 0 .095.082.172.183.172zm.864-.078c.055 0 .1-.042.1-.094s-.045-.094-.1-.094c-.056 0-.1.042-.1.094s.044.094.1.094zm.862-.084c.006 0 .011-.005.011-.01s-.005-.01-.01-.01c-.007 0-.011.005-.011.01s.005.01.01.01zm-1.726.565c.101 0 .183-.077.183-.172 0-.094-.082-.171-.182-.171-.101 0-.183.077-.183.171 0 .095.082.172.183.172zm.864-.074a.1.1 0 0 0 .103-.098c0-.053-.046-.097-.104-.097-.057 0-.103.044-.103.097a.1.1 0 0 0 .104.098zm.864.322c.006 0 .01-.004.01-.01 0-.005-.004-.01-.01-.01s-.01.005-.01.01c0 .006.004.01.01.01zm-1.726.162c.101 0 .183-.077.183-.172 0-.095-.082-.171-.183-.171-.1 0-.183.076-.183.171 0 .095.082.172.183.172zm.863-.091c.047 0 .086-.036.086-.08 0-.045-.039-.081-.086-.081-.047 0-.086.036-.086.08 0 .045.039.08.086.08z"/><path fill="#FF144B" d="M14.978 9.112a.007.007 0 0 0 .007-.007c0-.003-.003-.006-.007-.006s-.007.003-.007.006c0 .004.003.007.007.007zm-2.158.57c.1 0 .182-.077.182-.172 0-.095-.082-.171-.183-.171-.1 0-.182.076-.182.171 0 .095.081.172.182.172zm.862-.054c.07 0 .125-.053.125-.118s-.056-.118-.125-.118c-.07 0-.125.053-.125.118s.056.118.125.118zm.863-.068c.02 0 .036-.016.036-.035 0-.018-.016-.033-.036-.033-.02 0-.036.015-.036.033 0 .019.016.034.036.034zm-1.295.499c.088 0 .158-.066.158-.148 0-.082-.07-.148-.157-.148s-.158.066-.158.148c0 .082.07.148.158.148zm.864-.098c.03 0 .053-.022.053-.05 0-.028-.024-.05-.053-.05-.03 0-.054.022-.054.05 0 .028.024.05.053.05zm-1.294.499c.086 0 .157-.066.157-.148 0-.081-.07-.147-.158-.147a.152.152 0 0 0-.157.148c0 .081.07.147.157.147zm.862-.097c.03 0 .054-.023.054-.05 0-.028-.024-.05-.054-.05s-.054.022-.054.05c0 .027.024.05.054.05zm-.862.445c.055 0 .1-.042.1-.094s-.045-.094-.1-.094c-.056 0-.101.042-.101.094s.045.094.1.094zm-.868.449c.077 0 .14-.059.14-.131 0-.073-.063-.132-.14-.132-.077 0-.14.06-.14.132 0 .072.063.13.14.13zm.863-.095c.021 0 .039-.016.039-.036 0-.02-.018-.037-.04-.037-.021 0-.039.016-.039.037 0 .02.018.037.04.037zm-.427.394c.016 0 .029-.012.029-.026 0-.015-.013-.027-.029-.027s-.028.012-.028.027c0 .014.012.026.028.026zm-1.294.793a.01.01 0 0 0 0-.02.01.01 0 0 0 0 .02z"/><path fill="#0041FF" d="M10.23 12.707c-.02 0-.036.015-.036.033 0 .019.016.034.036.034.02 0 .036-.015.036-.034 0-.018-.016-.033-.036-.033zm0-.474c-.063 0-.113.047-.113.106s.05.107.113.107.114-.048.114-.107-.051-.106-.114-.106zm.432-.428c-.076 0-.138.058-.138.13 0 .07.062.128.138.128.075 0 .137-.058.137-.129 0-.07-.062-.129-.137-.129zm.862.101c-.016 0-.03.013-.03.028 0 .016.014.028.03.028.017 0 .03-.012.03-.028 0-.015-.013-.028-.03-.028zm-.431-.506c-.076 0-.138.058-.138.13 0 .07.062.129.138.129a.133.133 0 0 0 .137-.13c0-.071-.061-.129-.137-.129zm.863-.805a.123.123 0 0 0-.127.12c0 .065.056.119.127.119.07 0 .127-.054.127-.12s-.057-.119-.127-.119zM6.78 6.338c.039 0 .07-.03.07-.067a.068.068 0 0 0-.07-.067c-.04 0-.072.03-.072.067 0 .037.032.067.071.067zm.862.006c.043 0 .078-.033.078-.073 0-.04-.035-.073-.078-.073s-.078.033-.078.073c0 .04.035.073.078.073zm1.294.414c.053 0 .096-.04.096-.09 0-.049-.043-.089-.096-.089a.092.092 0 0 0-.095.09c0 .05.042.09.095.09zm-1.726.018c.063 0 .114-.048.114-.107s-.05-.106-.114-.106c-.062 0-.113.047-.113.106 0 .06.05.107.113.107zm.863 0c.063 0 .114-.048.114-.107s-.051-.106-.114-.106c-.062 0-.113.047-.113.106 0 .06.05.107.113.107zM7.64 5.9c.02 0 .036-.016.036-.034 0-.019-.016-.034-.036-.034a.034.034 0 0 0-.035.034c0 .018.016.033.035.033zm-1.292-.428c.013 0 .024-.01.024-.022 0-.013-.01-.023-.024-.023a.023.023 0 0 0-.024.023c0 .012.01.022.024.022zm.862.012c.02 0 .036-.015.036-.034a.035.035 0 0 0-.035-.034c-.02 0-.036.016-.036.034 0 .019.016.034.036.034zm.863-.006c.017 0 .03-.012.03-.028 0-.015-.013-.028-.03-.028-.016 0-.03.013-.03.028 0 .016.014.028.03.028zM6.778 5.9c.02 0 .035-.016.035-.034a.035.035 0 0 0-.035-.034c-.02 0-.036.015-.036.034 0 .018.016.033.036.033zm1.726-.006c.017 0 .03-.013.03-.028 0-.016-.013-.028-.03-.028-.016 0-.03.012-.03.028 0 .015.014.028.03.028zM5.917 6.3a.03.03 0 0 0 .03-.029c0-.015-.014-.028-.03-.028-.017 0-.03.013-.03.028 0 .016.013.028.03.028zm3.019.022c.03 0 .054-.023.054-.05 0-.029-.024-.051-.054-.051s-.054.022-.054.05c0 .028.024.05.054.05zm3.451 1.636c.03 0 .054-.023.054-.05 0-.028-.024-.05-.054-.05s-.054.022-.054.05c0 .027.024.05.054.05zM5.917 6.72c.03 0 .053-.023.053-.051 0-.028-.024-.05-.053-.05-.03 0-.054.022-.054.05 0 .028.024.05.054.05zm3.882.01c.036 0 .065-.027.065-.061s-.029-.062-.065-.062c-.036 0-.066.028-.066.062s.03.062.066.062zm-4.317.382c.02 0 .035-.015.035-.034 0-.018-.016-.033-.035-.033-.02 0-.036.015-.036.034 0 .018.016.033.036.033zm5.182.485c.062 0 .113-.048.113-.107s-.05-.106-.113-.106-.114.047-.114.106c0 .06.05.107.114.107zM9.8 7.168c.053 0 .096-.04.096-.09 0-.05-.043-.09-.096-.09a.093.093 0 0 0-.095.09c0 .05.043.09.095.09zm-4.316.368c.03 0 .054-.022.054-.05 0-.028-.024-.05-.054-.05s-.053.022-.053.05c0 .028.024.05.053.05zm5.609.051c.06 0 .107-.046.107-.101 0-.056-.048-.101-.107-.101-.06 0-.108.045-.108.1 0 .056.049.101.108.101zm.865.401c.046 0 .084-.035.084-.078s-.038-.078-.084-.078c-.046 0-.084.035-.084.078s.038.078.084.078zm-6.474-.013c.04 0 .072-.03.072-.068 0-.037-.032-.067-.072-.067-.04 0-.071.03-.071.067a.07.07 0 0 0 .071.068zm6.044.039c.061 0 .11-.046.11-.104 0-.057-.049-.103-.11-.103-.06 0-.11.046-.11.103 0 .058.05.104.11.104zm-6.044.356c.046 0 .084-.035.084-.078s-.038-.078-.084-.078c-.046 0-.083.035-.083.078s.037.079.083.079zm-.43.365a.041.041 0 0 0 .042-.04c0-.021-.02-.039-.042-.039a.041.041 0 0 0-.042.04c0 .021.019.039.042.039zm.862.101c.083 0 .15-.063.15-.14 0-.078-.067-.14-.15-.14-.082 0-.149.062-.149.14 0 .077.067.14.15.14zm6.041-.426c.069 0 .125-.053.125-.118s-.056-.117-.126-.117c-.069 0-.125.052-.125.117s.056.118.126.118zm.862.813c.069 0 .125-.053.125-.118s-.056-.117-.125-.117c-.07 0-.126.052-.126.117s.056.118.126.118zM5.055 9.15c.027 0 .048-.02.048-.045 0-.024-.021-.044-.048-.044-.026 0-.048.02-.048.044 0 .025.022.045.048.045zm.863.101a.15.15 0 0 0 .155-.146c0-.08-.07-.146-.155-.146-.086 0-.155.066-.155.146 0 .08.07.146.155.146zm7.332-.483c.044 0 .078-.033.078-.073 0-.04-.034-.072-.077-.072s-.078.032-.078.072c0 .04.035.073.078.073zm-8.196.787c.026 0 .047-.02.047-.045 0-.024-.02-.044-.047-.044s-.048.02-.048.044c0 .025.021.045.048.045zm.862.107c.09 0 .161-.068.161-.152 0-.083-.072-.151-.16-.151-.09 0-.162.068-.162.151 0 .084.072.152.161.152zm-.862.198c-.03 0-.054.023-.054.05 0 .029.024.051.054.051s.053-.022.053-.05c0-.028-.024-.05-.053-.05zm.862-.106c-.092 0-.167.07-.167.157s.075.157.167.157c.093 0 .167-.07.167-.157s-.074-.157-.167-.157zm6.472.426c-.078 0-.141.06-.141.132 0 .074.063.133.14.133.079 0 .142-.06.142-.133 0-.073-.063-.132-.141-.132zm-6.904.033c-.059 0-.107.045-.107.1 0 .057.048.102.107.102.06 0 .108-.045.108-.101 0-.056-.048-.1-.108-.1zm7.334.011a.093.093 0 0 0-.095.09c0 .05.043.09.095.09.053 0 .096-.04.096-.09 0-.05-.043-.09-.096-.09zm-7.334.389c-.059 0-.107.045-.107.101 0 .056.048.1.107.1.06 0 .108-.044.108-.1 0-.056-.048-.1-.108-.1zm6.903 0c-.06 0-.107.045-.107.101 0 .056.048.1.107.1.06 0 .107-.044.107-.1 0-.056-.048-.1-.107-.1zm-6.476.361a.156.156 0 0 0-.16.152c0 .083.071.15.16.15.09 0 .162-.067.162-.15 0-.084-.073-.152-.162-.152zm-.857.112a.041.041 0 0 0-.042.04c0 .021.019.039.042.039a.041.041 0 0 0 .042-.04c0-.021-.02-.039-.042-.039zm.862.297c-.085 0-.155.066-.155.146 0 .08.07.146.155.146.086 0 .156-.065.156-.146 0-.08-.07-.146-.156-.146zm-.432.467c-.05 0-.09.038-.09.084 0 .046.04.084.09.084.05 0 .09-.038.09-.084 0-.046-.04-.084-.09-.084zm-.43.062c-.014 0-.024.01-.024.022 0 .013.01.023.024.023.013 0 .024-.01.024-.023 0-.012-.011-.022-.024-.022zm.862.309c-.069 0-.125.053-.125.118s.056.118.125.118c.07 0 .126-.053.126-.118s-.056-.118-.126-.118zm-.432.463c-.033 0-.06.025-.06.056s.027.056.06.056.06-.025.06-.056c0-.03-.027-.056-.06-.056zm.864-.089c-.086 0-.155.065-.155.145 0 .08.069.146.155.146.085 0 .155-.065.155-.146 0-.08-.07-.146-.155-.146zm3.451.061c-.05 0-.09.038-.09.084 0 .046.04.084.09.084.05 0 .09-.037.09-.084 0-.046-.04-.084-.09-.084zm-3.883.414a.08.08 0 0 0-.083.079c0 .043.037.078.083.078.046 0 .084-.035.084-.078 0-.044-.038-.079-.084-.079zm.864-.073c-.09 0-.162.068-.162.152 0 .083.072.151.161.151.09 0 .161-.068.161-.151a.156.156 0 0 0-.16-.152zm.862-.022c-.102 0-.185.078-.185.174 0 .096.083.173.185.173s.185-.077.185-.173c0-.096-.083-.174-.185-.174zm.863.045c-.076 0-.138.058-.138.129 0 .07.062.129.138.129a.134.134 0 0 0 .137-.13c0-.07-.062-.128-.137-.128zm.862.073c-.033 0-.06.025-.06.056 0 .03.027.056.06.056s.06-.025.06-.056-.027-.056-.06-.056zm-3.45.41c-.03 0-.054.022-.054.05 0 .028.024.05.054.05s.053-.022.053-.05c0-.028-.024-.05-.053-.05zm.863-.051c-.06 0-.108.045-.108.1 0 .056.048.102.107.102.06 0 .108-.046.108-.101 0-.056-.049-.1-.108-.1zm.862-.012c-.066 0-.12.051-.12.113 0 .062.054.112.12.112s.12-.05.12-.112-.054-.112-.12-.112zm.863.057c-.033 0-.06.025-.06.056 0 .03.027.056.06.056s.06-.025.06-.056c0-.03-.027-.056-.06-.056zm-2.157.413a.041.041 0 0 0-.042.04c0 .021.019.039.042.039a.041.041 0 0 0 .042-.04c0-.021-.019-.039-.042-.039zm.862-.01c-.03 0-.053.022-.053.05 0 .027.024.05.054.05s.053-.023.053-.05c0-.028-.024-.05-.053-.05zm.863.033c-.01 0-.017.007-.017.016 0 .01.008.017.017.017.01 0 .018-.007.018-.017 0-.009-.008-.016-.018-.016zm-2.589-.397c-.01 0-.018.008-.018.017 0 .01.008.017.018.017.01 0 .018-.008.018-.017 0-.01-.008-.017-.018-.017z"/><path fill="#0041FF" d="M12.605 9.51a.194.194 0 0 0-.042-.119.19.19 0 0 0-.017-.156.188.188 0 0 0 .01-.247.185.185 0 0 0-.037-.176c.03-.03.05-.071.05-.116 0-.094-.082-.17-.182-.17a.183.183 0 0 0-.132.054.219.219 0 0 0-.135-.015.22.22 0 0 0-.164-.071.219.219 0 0 0-.178.088l-.012-.019a.607.607 0 0 0-.039-.2.177.177 0 0 0 .008-.048.192.192 0 0 0-.161-.184.699.699 0 0 0-.374-.187.102.102 0 0 0 .007-.036c0-.06-.051-.107-.114-.107s-.114.048-.114.107c0 .011.003.022.006.032a.718.718 0 0 0-.147.036.73.73 0 0 0-.071-.021.1.1 0 0 0 .01-.045c0-.058-.05-.106-.113-.106a.117.117 0 0 0-.068.022.677.677 0 0 0-.304-.25.105.105 0 0 0 .053-.09c0-.059-.05-.107-.114-.107a.11.11 0 0 0-.113.107.1.1 0 0 0 .01.043.73.73 0 0 0-.184-.007.132.132 0 0 0 .006-.036c0-.078-.068-.141-.151-.141-.03 0-.06.008-.083.023a.661.661 0 0 0-.229-.244.116.116 0 0 0 .01-.045c0-.068-.06-.124-.132-.124a.132.132 0 0 0-.12.073.73.73 0 0 0-.142-.014c-.014 0-.028 0-.042.002a.144.144 0 0 0-.127-.074.144.144 0 0 0-.132.08.734.734 0 0 0-.167-.006.15.15 0 0 0-.133-.078.15.15 0 0 0-.134.08.738.738 0 0 0-.156 0 .156.156 0 0 0-.141-.085.156.156 0 0 0-.14.082l-.025-.001a.733.733 0 0 0-.122.01.156.156 0 0 0-.145-.091.155.155 0 0 0-.144.093.732.732 0 0 0-.131-.012h-.017a.16.16 0 0 0-.244-.043.24.24 0 0 0-.246-.004.15.15 0 0 0-.113-.02.238.238 0 0 0-.335.037.124.124 0 0 0-.064-.018c-.066 0-.12.05-.12.113 0 .062.054.112.12.112a.126.126 0 0 0 .033-.005c.015.039.04.072.074.096a.626.626 0 0 0-.042.077.156.156 0 0 0-.062-.013c-.083 0-.15.063-.15.14 0 .078.067.14.15.14h.005c0 .041.005.082.013.12l-.018-.001a.168.168 0 0 0-.173.163.16.16 0 0 0 .072.132.164.164 0 0 0-.027.12.174.174 0 0 0-.063.132c0 .048.02.092.052.124a.17.17 0 0 0-.014.137.196.196 0 0 0-.063.143.2.2 0 0 0 .096.168.259.259 0 0 0-.016.08.203.203 0 0 0-.084.161c0 .066.033.124.083.163a.223.223 0 0 0-.018.087.207.207 0 0 0-.072.155c0 .062.028.117.072.156a.222.222 0 0 0-.01.1.206.206 0 0 0-.062.145c0 .06.026.115.069.153a.222.222 0 0 0-.006.102.203.203 0 0 0-.019.274.223.223 0 0 0-.01.162.203.203 0 0 0 .033.264.223.223 0 0 0 0 .112.201.201 0 0 0-.066.148.2.2 0 0 0 .058.14.219.219 0 0 0 .007.113.206.206 0 0 0-.066.15c0 .059.024.111.065.15a.22.22 0 0 0-.005.112.208.208 0 0 0-.06.146c0 .059.025.111.065.15a.196.196 0 0 0-.005.104.202.202 0 0 0-.066.147c0 .116.1.21.223.21a.228.228 0 0 0 .161-.067.227.227 0 0 0 .135.118.205.205 0 0 0-.07.152c0 .117.102.212.227.212a.234.234 0 0 0 .152-.055.24.24 0 0 0 .099 0c.043.035.1.056.16.056.069 0 .13-.026.175-.068a.27.27 0 0 0 .095.002.234.234 0 0 0 .162.064.233.233 0 0 0 .163-.065.282.282 0 0 0 .115-.002.234.234 0 0 0 .16.06.234.234 0 0 0 .165-.067.332.332 0 0 0 .098 0 .238.238 0 0 0 .326.012.324.324 0 0 0 .103-.005.24.24 0 0 0 .117.03c.124 0 .225-.094.225-.211a.202.202 0 0 0-.04-.121.3.3 0 0 0 .163-.109c.037.031.085.05.139.05.114 0 .207-.087.207-.195a.19.19 0 0 0-.078-.152.294.294 0 0 0 .124-.103.245.245 0 0 0 .178.075c.074 0 .14-.031.183-.08l.03.001c.03 0 .059-.005.085-.014.034.03.08.049.13.049.105 0 .19-.08.19-.178 0-.047-.02-.09-.051-.122a.286.286 0 0 0 .051-.12.24.24 0 0 0 .021-.024.324.324 0 0 0 .102-.005.204.204 0 0 0 .127.044c.11 0 .198-.083.198-.186a.183.183 0 0 0-.087-.153v-.013a.268.268 0 0 0 .125-.118c.04.056.108.093.185.093.122 0 .222-.093.222-.207a.204.204 0 0 0-.093-.169.281.281 0 0 0 .127-.113.233.233 0 0 0 .18.084c.126 0 .228-.096.228-.214a.208.208 0 0 0-.085-.166.278.278 0 0 0 .112-.11c.04.051.104.084.177.084.122 0 .221-.093.221-.208a.205.205 0 0 0-.104-.176.26.26 0 0 0 .13-.127c.036.054.1.09.172.09.111 0 .202-.086.202-.19a.183.183 0 0 0-.056-.132.192.192 0 0 0-.01-.101.2.2 0 0 0 .094-.168z"/><path fill="#00C8FF" d="M6.572 4.079a.041.041 0 0 0 .042-.04c0-.021-.02-.039-.042-.039a.041.041 0 0 0-.042.04c0 .021.019.039.042.039zm2.57.794c.014 0 .025-.01.025-.023s-.011-.024-.025-.024c-.014 0-.025.01-.025.024 0 .013.011.023.025.023zm-3.444-.401c.016 0 .03-.013.03-.028 0-.015-.014-.027-.03-.027s-.03.012-.03.027.014.028.03.028zm.863.023c.03 0 .054-.023.054-.051 0-.028-.024-.051-.054-.051s-.055.023-.055.05c0 .03.025.052.055.052zm.863-.012c.023 0 .042-.017.042-.039s-.02-.04-.042-.04a.041.041 0 0 0-.042.04c0 .022.019.04.042.04zm.863-.033a.005.005 0 1 0 0-.01.005.005 0 0 0 0 .01zm-2.589.458c.035 0 .063-.026.063-.059 0-.032-.028-.059-.063-.059s-.063.027-.063.06c0 .032.028.058.063.058zm.862.044c.061 0 .11-.046.11-.103 0-.056-.049-.102-.11-.102a.105.105 0 0 0-.108.102c0 .057.049.103.109.103zm.864-.009c.055 0 .1-.042.1-.094s-.045-.094-.1-.094c-.056 0-.101.042-.101.094s.045.094.1.094zm.862-.031c.037 0 .067-.028.067-.063 0-.034-.03-.063-.067-.063-.037 0-.067.029-.067.063 0 .035.03.063.067.063z"/><path fill="#00C8FF" d="M8.288 4.46c.009 0 .017-.006.017-.015s-.008-.016-.017-.016c-.01 0-.017.007-.017.016 0 .009.008.016.017.016zm-2.165-.405c.01 0 .017-.007.017-.015 0-.009-.007-.016-.017-.016a.016.016 0 0 0-.016.016c0 .008.007.015.016.015zm-.425 1.282a.085.085 0 0 0 .088-.083c0-.045-.04-.082-.088-.082-.049 0-.088.037-.088.082 0 .046.04.083.088.083zm.862.071c.09 0 .164-.069.164-.154 0-.084-.073-.153-.163-.153-.09 0-.164.069-.164.153 0 .085.073.154.164.154zm.863-.008c.086 0 .156-.065.156-.146 0-.08-.07-.145-.156-.145-.085 0-.155.065-.155.145 0 .08.07.146.155.146zm.863-.036c.065 0 .118-.049.118-.11 0-.06-.053-.11-.118-.11-.064 0-.117.05-.117.11 0 .061.053.11.117.11zm.864-.039c.04 0 .075-.032.075-.07 0-.04-.034-.071-.076-.071-.042 0-.075.031-.075.07 0 .04.033.071.075.071zm.862-.051a.02.02 0 0 0 .021-.02c0-.01-.01-.02-.021-.02a.02.02 0 0 0-.02.02c0 .011.008.02.02.02zm-4.314.479c.056 0 .1-.042.1-.094s-.044-.094-.1-.094c-.056 0-.1.042-.1.094s.044.094.1.094zm.862.107c.119 0 .214-.09.214-.201 0-.11-.095-.2-.213-.2s-.214.09-.214.2c0 .11.096.2.214.2zm.863-.008c.114 0 .206-.087.206-.193 0-.107-.092-.193-.206-.193-.113 0-.205.086-.205.193 0 .106.092.193.205.193zm.863-.035c.093 0 .168-.07.168-.158 0-.087-.075-.157-.168-.157-.092 0-.167.07-.167.157s.075.158.167.158zm.863-.04c.07 0 .126-.053.126-.118s-.057-.118-.126-.118c-.07 0-.126.053-.126.118s.057.118.126.118zm.863-.047c.042 0 .075-.032.075-.07a.073.073 0 0 0-.075-.072.073.073 0 0 0-.075.071c0 .04.033.07.075.07zm.863-.055c.009 0 .017-.007.017-.016 0-.008-.008-.015-.017-.015-.01 0-.017.007-.017.015 0 .009.008.016.017.016zm-5.177.495c.063 0 .113-.047.113-.106s-.05-.106-.113-.106c-.062 0-.113.047-.113.106s.05.106.113.106zm.862.094c.119 0 .214-.09.214-.2 0-.111-.095-.201-.213-.201s-.214.09-.214.2c0 .112.096.201.214.201zm.863 0c.118 0 .214-.09.214-.2 0-.111-.096-.201-.214-.201s-.213.09-.213.2c0 .112.095.201.213.201zm.863-.004c.116 0 .21-.088.21-.196 0-.109-.094-.197-.21-.197-.115 0-.21.088-.21.197 0 .108.095.196.21.196zm.863-.035c.095 0 .172-.072.172-.161 0-.09-.077-.161-.172-.161-.095 0-.172.072-.172.16 0 .09.077.162.172.162zm.863-.047c.067 0 .121-.051.121-.114s-.054-.114-.121-.114-.122.05-.122.114c0 .063.055.114.122.114zm.863-.048c.04 0 .07-.03.07-.066a.068.068 0 0 0-.07-.067c-.04 0-.072.03-.072.067 0 .037.032.067.072.067zm-5.609.398a.062.062 0 0 0 .063-.06c0-.032-.028-.058-.063-.058-.034 0-.063.026-.063.059 0 .032.029.059.063.059zm.864.126c.108 0 .196-.083.196-.185 0-.103-.088-.185-.197-.185-.108 0-.197.082-.197.185 0 .102.089.185.197.185zm.862.016c.118 0 .214-.09.214-.201 0-.111-.096-.2-.214-.2s-.214.089-.214.2c0 .11.096.2.214.2zm.863 0c.118 0 .214-.09.214-.201 0-.111-.096-.2-.214-.2s-.214.089-.214.2c0 .11.096.2.214.2zm.863 0c.118 0 .213-.09.213-.201 0-.111-.095-.2-.213-.2-.119 0-.214.089-.214.2 0 .11.095.2.214.2zm.862-.024c.104 0 .189-.08.189-.177 0-.098-.085-.178-.189-.178s-.188.08-.188.178c0 .097.084.177.188.177zm.863-.043c.079 0 .143-.06.143-.134 0-.074-.064-.134-.143-.134a.138.138 0 0 0-.142.134c0 .074.063.134.142.134zm.863-.052c.049 0 .088-.037.088-.082 0-.046-.04-.083-.088-.083a.085.085 0 0 0-.088.083c0 .045.04.082.088.082zm.863-.062a.02.02 0 0 0 .02-.02c0-.011-.008-.02-.02-.02s-.021.009-.021.02c0 .01.01.02.02.02zm-6.471.495c.065 0 .117-.05.117-.11 0-.061-.052-.11-.117-.11s-.117.049-.117.11c0 .06.052.11.117.11zm.862.09c.119 0 .214-.09.214-.2 0-.111-.095-.201-.213-.201s-.214.09-.214.2c0 .111.096.201.214.201zm.863 0c.118 0 .214-.09.214-.2 0-.111-.096-.201-.214-.201s-.213.09-.213.2c0 .111.095.201.213.201zm.863 0c.118 0 .214-.09.214-.2 0-.111-.096-.201-.214-.201s-.214.09-.214.2c0 .111.096.201.214.201zm.863 0c.118 0 .214-.09.214-.2 0-.111-.096-.201-.214-.201s-.214.09-.214.2c0 .111.096.201.214.201zm.863-.008c.113 0 .205-.086.205-.193 0-.106-.092-.192-.205-.192-.114 0-.206.086-.206.192 0 .107.092.193.206.193zm.862-.046c.086 0 .156-.066.156-.146 0-.08-.07-.146-.155-.146a.15.15 0 0 0-.155.146c0 .08.069.145.154.145zm.863-.056c.054 0 .097-.04.097-.09 0-.05-.043-.09-.097-.09-.053 0-.096.04-.096.09 0 .05.043.09.096.09zm.863-.063c.017 0 .03-.012.03-.027s-.014-.028-.03-.028-.03.013-.03.028c0 .015.014.027.03.027zm-6.902.492c.067 0 .122-.052.122-.115s-.055-.114-.122-.114-.121.051-.121.114.054.115.121.115zm.862.086c.119 0 .214-.09.214-.2 0-.112-.095-.201-.213-.201s-.214.09-.214.2c0 .111.096.201.214.201zm.863 0c.118 0 .214-.09.214-.2 0-.112-.096-.201-.214-.201s-.213.09-.213.2c0 .111.095.201.213.201zm.863 0c.118 0 .214-.09.214-.2 0-.112-.096-.201-.214-.201s-.214.09-.214.2c0 .111.096.201.214.201zm.863 0c.118 0 .214-.09.214-.2 0-.112-.096-.201-.214-.201s-.214.09-.214.2c0 .111.096.201.214.201zm.863 0c.118 0 .213-.09.213-.2 0-.112-.095-.201-.213-.201s-.214.09-.214.2c0 .111.096.201.214.201zm.862-.019c.107 0 .193-.082.193-.182 0-.1-.086-.18-.193-.18-.106 0-.192.08-.192.18 0 .1.086.181.192.181zm.863-.056c.074 0 .134-.056.134-.125 0-.07-.06-.126-.134-.126-.074 0-.134.056-.134.126 0 .069.06.125.134.125zm.863-.063c.037 0 .067-.028.067-.063 0-.034-.03-.062-.067-.062-.037 0-.067.028-.067.062 0 .035.03.063.067.063zm-7.334.409c.04 0 .072-.03.072-.067 0-.037-.032-.067-.072-.067-.039 0-.07.03-.07.067 0 .037.031.067.07.067zm.864.11c.103 0 .188-.079.188-.177 0-.098-.085-.177-.189-.177s-.188.08-.188.177c0 .098.084.177.188.177zm.862.024c.118 0 .214-.09.214-.2 0-.112-.096-.201-.214-.201s-.214.09-.214.2c0 .111.096.201.214.201zm.863 0c.118 0 .214-.09.214-.2 0-.112-.096-.201-.214-.201s-.214.09-.214.2c0 .111.096.201.214.201zm.859 0c.118 0 .214-.09.214-.2 0-.112-.096-.201-.214-.201s-.213.09-.213.2c0 .111.095.201.213.201zm.866 0c.118 0 .214-.09.214-.2 0-.112-.096-.201-.214-.201s-.213.09-.213.2c0 .111.095.201.213.201zm.863 0c.118 0 .214-.09.214-.2 0-.112-.096-.201-.214-.201s-.214.09-.214.2c0 .111.096.201.214.201zm.863-.016c.109 0 .197-.083.197-.185s-.088-.185-.197-.185c-.109 0-.197.083-.197.185s.088.185.197.185zm.863-.074c.06 0 .11-.046.11-.103 0-.057-.05-.104-.11-.104a.107.107 0 0 0-.11.104c0 .057.049.103.11.103zm.862-.056c.033 0 .06-.024.06-.055 0-.03-.027-.055-.06-.055-.032 0-.058.025-.058.055s.026.055.058.055zm-7.765.417c.04 0 .072-.03.072-.067 0-.037-.032-.067-.072-.067-.039 0-.07.03-.07.067 0 .037.031.067.07.067zm.864.102c.099 0 .18-.075.18-.169 0-.093-.081-.169-.18-.169-.1 0-.18.076-.18.17 0 .093.08.168.18.168zm.862.032c.118 0 .214-.09.214-.2 0-.112-.096-.202-.214-.202s-.214.09-.214.201c0 .111.096.2.214.2zm.863 0c.118 0 .214-.09.214-.2 0-.112-.096-.202-.214-.202s-.214.09-.214.201c0 .111.096.2.214.2zm.863 0c.118 0 .213-.09.213-.2a.207.207 0 0 0-.213-.202c-.119 0-.214.09-.214.201 0 .111.095.2.214.2zm.862 0c.118 0 .214-.09.214-.2 0-.112-.096-.202-.214-.202s-.213.09-.213.201c0 .111.095.2.213.2zm.863 0c.118 0 .214-.09.214-.2 0-.112-.096-.202-.214-.202s-.214.09-.214.201c0 .111.096.2.214.2zm.863 0c.118 0 .214-.09.214-.2 0-.112-.096-.202-.214-.202s-.214.09-.214.201c0 .111.096.2.214.2zm.863-.063c.08 0 .146-.062.146-.138a.142.142 0 0 0-.146-.138c-.081 0-.147.062-.147.138 0 .076.066.138.147.138zm.862-.063c.045 0 .08-.034.08-.075 0-.041-.035-.075-.08-.075-.043 0-.08.034-.08.075 0 .041.037.075.08.075zm-7.765.397c.04 0 .072-.03.072-.067 0-.037-.032-.067-.072-.067-.039 0-.07.03-.07.067 0 .037.031.067.07.067zm.864.094c.094 0 .171-.072.171-.161 0-.09-.077-.161-.172-.161-.095 0-.171.072-.171.16 0 .09.076.162.171.162zm.862.04c.118 0 .214-.09.214-.201 0-.11-.096-.2-.214-.2s-.214.09-.214.2c0 .11.096.2.214.2zm.863 0c.118 0 .214-.09.214-.201 0-.11-.096-.2-.214-.2s-.214.09-.214.2c0 .11.096.2.214.2zm.863 0c.118 0 .213-.09.213-.201 0-.11-.095-.2-.213-.2-.119 0-.214.09-.214.2 0 .11.095.2.214.2zm.862 0c.118 0 .214-.09.214-.201 0-.11-.096-.2-.214-.2s-.213.09-.213.2c0 .11.095.2.213.2zm.863 0c.118 0 .214-.09.214-.201 0-.11-.096-.2-.214-.2s-.214.09-.214.2c0 .11.096.2.214.2zm.863 0c.118 0 .214-.09.214-.201 0-.11-.096-.2-.214-.2s-.214.09-.214.2c0 .11.096.2.214.2zm.863-.04a.166.166 0 0 0 .171-.161c0-.09-.076-.161-.171-.161-.095 0-.172.072-.172.16 0 .09.077.162.172.162zm.863-.083c.046 0 .083-.035.083-.078s-.037-.079-.083-.079c-.047 0-.084.036-.084.079 0 .043.037.078.084.078zm-7.766.394c.04 0 .072-.03.072-.067 0-.037-.032-.067-.072-.067-.039 0-.07.03-.07.067 0 .037.031.067.07.067zm.864.09c.092 0 .167-.07.167-.157s-.075-.158-.168-.158a.162.162 0 0 0-.167.158c0 .087.075.157.167.157zm.862.043c.118 0 .214-.09.214-.2 0-.111-.096-.201-.214-.201s-.214.09-.214.2c0 .112.096.201.214.201zm.863 0c.118 0 .214-.09.214-.2 0-.111-.096-.201-.214-.201s-.214.09-.214.2c0 .112.096.201.214.201zm.863 0c.118 0 .213-.09.213-.2a.207.207 0 0 0-.213-.201c-.119 0-.214.09-.214.2 0 .112.095.201.214.201zm.862 0c.118 0 .214-.09.214-.2 0-.111-.096-.201-.214-.201s-.213.09-.213.2c0 .112.095.201.213.201zm.863 0c.118 0 .214-.09.214-.2 0-.111-.096-.201-.214-.201s-.214.09-.214.2c0 .112.096.201.214.201zm.863 0c.118 0 .214-.09.214-.2 0-.111-.096-.201-.214-.201s-.214.09-.214.2c0 .112.096.201.214.201zm.863 0c.118 0 .213-.09.213-.2a.207.207 0 0 0-.213-.201c-.119 0-.214.09-.214.2 0 .112.095.201.214.201zm.862-.118c.05 0 .088-.037.088-.082a.085.085 0 0 0-.088-.083c-.048 0-.088.037-.088.083 0 .045.04.082.088.082zm-7.765.385c.037 0 .067-.028.067-.062 0-.035-.03-.063-.067-.063-.037 0-.067.028-.067.063 0 .034.03.062.067.062zm.864.087c.087 0 .159-.067.159-.15 0-.082-.072-.149-.16-.149a.154.154 0 0 0-.159.15c0 .082.071.15.16.15zm.862.051c.118 0 .214-.09.214-.2 0-.111-.096-.201-.214-.201s-.214.09-.214.2c0 .112.096.201.214.201zm.863 0c.118 0 .214-.09.214-.2 0-.111-.096-.201-.214-.201s-.214.09-.214.2c0 .112.096.201.214.201zm.863 0c.118 0 .213-.09.213-.2a.207.207 0 0 0-.213-.201c-.119 0-.214.09-.214.2 0 .112.095.201.214.201zm.862 0c.118 0 .214-.09.214-.2 0-.111-.096-.201-.214-.201s-.213.09-.213.2c0 .112.095.201.213.201zm.863 0c.118 0 .214-.09.214-.2 0-.111-.096-.201-.214-.201s-.214.09-.214.2c0 .112.096.201.214.201zm.863 0c.118 0 .214-.09.214-.2 0-.111-.096-.201-.214-.201s-.214.09-.214.2c0 .112.096.201.214.201zm.863 0c.118 0 .213-.09.213-.2a.207.207 0 0 0-.213-.201c-.119 0-.214.09-.214.2 0 .112.095.201.214.201zm.862-.118c.05 0 .088-.037.088-.082a.085.085 0 0 0-.088-.083c-.048 0-.088.037-.088.083 0 .045.04.082.088.082zm-7.765.382a.062.062 0 0 0 .063-.06c0-.032-.028-.058-.063-.058-.034 0-.063.026-.063.059 0 .032.029.059.063.059zm.864.078c.08 0 .146-.061.146-.137 0-.076-.066-.138-.147-.138-.08 0-.146.062-.146.138 0 .076.065.137.146.137zm.862.063c.118 0 .214-.09.214-.2 0-.111-.096-.201-.214-.201s-.214.09-.214.2c0 .111.096.201.214.201zm.863 0c.118 0 .214-.09.214-.2 0-.111-.096-.201-.214-.201s-.214.09-.214.2c0 .111.096.201.214.201zm.863 0c.118 0 .213-.09.213-.2a.207.207 0 0 0-.213-.201c-.119 0-.214.09-.214.2 0 .111.095.201.214.201zm.862 0c.118 0 .214-.09.214-.2 0-.111-.096-.201-.214-.201s-.213.09-.213.2c0 .111.095.201.213.201zm.863 0c.118 0 .214-.09.214-.2 0-.111-.096-.201-.214-.201s-.214.09-.214.2c0 .111.096.201.214.201zm.863 0c.118 0 .214-.09.214-.2 0-.111-.096-.201-.214-.201s-.214.09-.214.2c0 .111.096.201.214.201zm.863 0c.118 0 .213-.09.213-.2a.207.207 0 0 0-.213-.201c-.119 0-.214.09-.214.2 0 .111.095.201.214.201zm.863-.134c.039 0 .07-.03.07-.066a.068.068 0 0 0-.07-.067c-.04 0-.072.03-.072.067 0 .037.032.066.072.066zm-7.766.393c.033 0 .06-.024.06-.055 0-.03-.027-.055-.06-.055-.032 0-.058.025-.058.055s.026.055.058.055zm.864.056c.064 0 .117-.05.117-.11 0-.061-.053-.11-.118-.11-.064 0-.117.049-.117.11 0 .06.053.11.117.11zm.862.09c.118 0 .214-.09.214-.2 0-.111-.096-.201-.214-.201s-.214.09-.214.2c0 .111.096.201.214.201zm.863 0c.118 0 .214-.09.214-.2 0-.111-.096-.201-.214-.201s-.214.09-.214.2c0 .111.096.201.214.201zm.863 0c.118 0 .213-.09.213-.2a.207.207 0 0 0-.213-.201c-.119 0-.214.09-.214.2 0 .111.095.201.214.201zm.862 0c.118 0 .214-.09.214-.2 0-.111-.096-.201-.214-.201s-.213.09-.213.2c0 .111.095.201.213.201zm.863 0c.118 0 .214-.09.214-.2 0-.111-.096-.201-.214-.201s-.214.09-.214.2c0 .111.096.201.214.201zm.863 0c.118 0 .214-.09.214-.2 0-.111-.096-.201-.214-.201s-.214.09-.214.2c0 .111.096.201.214.201zm.863-.032c.1 0 .18-.075.18-.169 0-.093-.08-.169-.18-.169-.1 0-.18.076-.18.17 0 .093.08.168.18.168zm.863-.121c.027 0 .05-.021.05-.047a.05.05 0 0 0-.05-.048.048.048 0 0 0-.05.048c0 .026.022.047.05.047zm-7.334.44a.085.085 0 0 0 .088-.083c0-.045-.04-.082-.088-.082-.049 0-.088.037-.088.082 0 .046.04.083.088.083zm.862.075c.093 0 .168-.07.168-.158 0-.087-.075-.157-.167-.157-.093 0-.168.07-.168.157s.075.158.168.158zm.863.043c.118 0 .214-.09.214-.2 0-.112-.096-.202-.214-.202s-.213.09-.213.201c0 .11.095.2.213.2zm.863 0c.118 0 .214-.09.214-.2 0-.112-.096-.202-.214-.202s-.214.09-.214.201c0 .11.096.2.214.2zm.863 0c.118 0 .214-.09.214-.2 0-.112-.096-.202-.214-.202s-.214.09-.214.201c0 .11.096.2.214.2zm.863 0c.118 0 .213-.09.213-.2 0-.112-.095-.202-.213-.202s-.214.09-.214.201c0 .11.096.2.214.2zm.862 0c.118 0 .214-.09.214-.2 0-.112-.096-.202-.214-.202s-.213.09-.213.201c0 .11.095.2.213.2zm.863-.021c.106 0 .192-.08.192-.18 0-.1-.086-.18-.192-.18-.106 0-.191.08-.191.18 0 .1.085.18.191.18zm.863-.105c.044 0 .08-.034.08-.075 0-.041-.036-.074-.08-.074-.044 0-.08.033-.08.074 0 .042.036.075.08.075zm-7.334.378a.05.05 0 0 0 .05-.048c0-.026-.022-.047-.05-.047-.027 0-.05.021-.05.047s.023.047.05.047zm.864.062c.064 0 .117-.049.117-.11 0-.06-.053-.11-.118-.11-.064 0-.117.05-.117.11 0 .061.053.11.117.11zm.862.068c.104 0 .189-.08.189-.178 0-.098-.085-.177-.189-.177s-.189.08-.189.177c0 .098.085.177.19.177zm.863.023c.118 0 .214-.09.214-.201 0-.11-.096-.2-.214-.2s-.214.09-.214.2c0 .11.096.2.214.2zm.863 0c.118 0 .213-.09.213-.201 0-.11-.095-.2-.213-.2-.119 0-.214.09-.214.2 0 .11.095.2.214.2zm.862 0c.118 0 .214-.09.214-.201 0-.11-.096-.2-.214-.2s-.213.09-.213.2c0 .11.095.2.213.2zm.863 0c.118 0 .214-.09.214-.201 0-.11-.096-.2-.214-.2s-.214.09-.214.2c0 .11.096.2.214.2zm.863-.028c.101 0 .184-.078.184-.173 0-.095-.083-.173-.184-.173-.102 0-.184.078-.184.173 0 .095.082.173.184.173zm.863-.09c.048 0 .088-.037.088-.083 0-.046-.04-.082-.088-.082-.049 0-.088.037-.088.082 0 .046.04.083.088.083zm-6.903.361c.024 0 .042-.017.042-.039a.041.041 0 0 0-.042-.04.041.041 0 0 0-.042.04c0 .022.02.04.042.04zm.864.059c.057 0 .104-.044.104-.098 0-.054-.047-.098-.105-.098-.057 0-.104.044-.104.098 0 .054.047.098.104.098zm.862.06c.093 0 .168-.071.168-.158 0-.087-.075-.157-.168-.157-.092 0-.168.07-.168.157s.076.158.168.158zm.863.043c.118 0 .214-.09.214-.201 0-.111-.096-.2-.214-.2s-.214.089-.214.2c0 .11.096.2.214.2zm.863 0c.118 0 .213-.09.213-.201 0-.111-.095-.2-.213-.2-.119 0-.214.089-.214.2 0 .11.095.2.214.2zm.862 0c.118 0 .214-.09.214-.201 0-.111-.096-.2-.214-.2s-.213.089-.213.2c0 .11.095.2.213.2zm.863-.02c.107 0 .193-.081.193-.181 0-.1-.086-.181-.193-.181-.106 0-.193.081-.193.181 0 .1.087.181.193.181zm.863-.067c.067 0 .121-.051.121-.114s-.054-.114-.121-.114-.122.051-.122.114.055.114.122.114zm.863-.086c.016 0 .03-.013.03-.028 0-.015-.014-.027-.03-.027s-.03.012-.03.027.014.028.03.028zm-6.471.435c.035 0 .063-.026.063-.058 0-.033-.028-.06-.063-.06s-.063.027-.063.06c0 .032.028.059.063.059zm.862.056c.068 0 .122-.051.122-.114s-.054-.114-.121-.114-.122.05-.122.114c0 .063.055.114.122.114zm.863.047c.095 0 .172-.072.172-.161a.167.167 0 0 0-.171-.162c-.095 0-.172.072-.172.162 0 .089.077.161.171.161zm.863.035c.116 0 .21-.088.21-.196 0-.109-.094-.197-.21-.197-.115 0-.21.088-.21.197 0 .108.095.196.21.196zm.863.004c.118 0 .214-.09.214-.2 0-.111-.096-.201-.214-.201s-.214.09-.214.2c0 .111.096.201.214.201zm.863-.035c.097 0 .176-.074.176-.165 0-.092-.08-.166-.176-.166a.17.17 0 0 0-.176.166c0 .09.078.165.176.165zm.862-.071c.056 0 .1-.042.1-.094s-.044-.094-.1-.094c-.055 0-.1.042-.1.094s.045.094.1.094zm.864-.078a.016.016 0 0 0 .016-.016.016.016 0 0 0-.016-.016c-.01 0-.017.007-.017.016 0 .009.007.016.017.016zm-6.04.436c.028 0 .05-.021.05-.047s-.022-.047-.05-.047c-.028 0-.05.02-.05.047 0 .026.022.047.05.047zm.862.066c.068 0 .122-.05.122-.113 0-.064-.054-.114-.121-.114s-.122.05-.122.114c0 .063.055.114.122.114zm.864.024c.08 0 .146-.061.146-.137a.142.142 0 0 0-.146-.138c-.081 0-.147.062-.147.138 0 .076.066.137.147.137zm.862.024c.095 0 .172-.072.172-.161 0-.09-.077-.162-.172-.162-.095 0-.172.073-.172.162 0 .089.077.161.172.161zm.863-.004c.093 0 .168-.07.168-.157s-.075-.158-.168-.158c-.093 0-.168.07-.168.158 0 .087.075.157.168.157zm.863-.031c.074 0 .134-.056.134-.126s-.06-.127-.134-.127c-.075 0-.135.057-.135.127s.06.126.135.126zm.863-.083c.025 0 .046-.02.046-.043 0-.024-.02-.043-.046-.043s-.046.019-.046.043c0 .024.02.043.046.043zm-5.177.397c.021 0 .038-.016.038-.035a.037.037 0 0 0-.038-.036.037.037 0 0 0-.037.036c0 .02.016.035.037.035zm.862.063c.059 0 .106-.044.106-.099 0-.054-.047-.098-.105-.098-.058 0-.105.044-.105.098 0 .055.047.1.105.1zm.863.012c.065 0 .118-.05.118-.11 0-.061-.053-.11-.118-.11-.064 0-.117.049-.117.11 0 .06.053.11.117.11zm.863.012c.072 0 .13-.055.13-.122 0-.068-.058-.122-.13-.122-.071 0-.13.054-.13.122 0 .067.059.122.13.122zm.864-.012c.064 0 .116-.05.116-.11 0-.061-.052-.11-.117-.11s-.117.049-.117.11c0 .06.052.11.117.11zm.862-.055c.032 0 .059-.025.059-.055s-.027-.055-.06-.055c-.031 0-.058.024-.058.055 0 .03.027.055.059.055zm-4.314.369a.02.02 0 0 0 .021-.02c0-.01-.01-.02-.02-.02-.012 0-.022.01-.022.02 0 .011.01.02.021.02zm.862.035c.033 0 .06-.024.06-.055 0-.03-.027-.055-.06-.055-.032 0-.058.025-.058.055s.026.055.059.055zm.864.024c.046 0 .084-.035.084-.079 0-.043-.038-.078-.084-.078-.047 0-.084.035-.084.078 0 .044.037.079.084.079zm.862.008a.09.09 0 0 0 .092-.087c0-.047-.04-.086-.092-.086-.05 0-.092.039-.092.086a.09.09 0 0 0 .092.087zm.432-.015c.042 0 .077-.032.077-.072 0-.04-.035-.072-.077-.072-.043 0-.077.032-.077.072 0 .04.034.072.077.072zm.862-.048c.014 0 .026-.01.026-.024 0-.013-.012-.023-.025-.023-.014 0-.026.01-.026.023s.012.024.026.024zm-3.019.413c.019 0 .034-.014.034-.032 0-.017-.015-.031-.034-.031-.019 0-.034.014-.034.031 0 .018.015.032.034.032zm.863.015c.027 0 .05-.02.05-.047 0-.026-.023-.047-.05-.047-.028 0-.05.021-.05.047s.022.047.05.047zm.862-.003c.026 0 .047-.02.047-.044 0-.024-.021-.043-.047-.043-.025 0-.046.02-.046.043 0 .024.021.043.046.043z"/><path fill="#FF144B" d="M11.091 8.445c.1 0 .18-.075.18-.168 0-.093-.08-.168-.18-.168-.099 0-.179.075-.179.168 0 .093.08.168.18.168zM7.21 5.064c.018 0 .032-.014.032-.03 0-.017-.014-.03-.032-.03-.018 0-.032.013-.032.03 0 .016.014.03.032.03zm.863-.007c.014 0 .025-.01.025-.024 0-.013-.011-.023-.025-.023-.014 0-.025.01-.025.023s.011.024.025.024zm-.864-.393c.008 0 .014-.006.014-.013 0-.007-.006-.013-.014-.013s-.015.006-.015.013c0 .007.007.013.015.013zm.432 0c.008 0 .015-.006.015-.013 0-.007-.007-.013-.015-.013s-.014.006-.014.013c0 .007.006.013.014.013zm.001.831c.035 0 .064-.027.064-.06 0-.034-.029-.06-.064-.06-.036 0-.065.026-.065.06 0 .033.029.06.065.06zm.862-.003c.034 0 .061-.026.061-.057a.058.058 0 0 0-.06-.057c-.034 0-.062.025-.062.057 0 .031.028.057.061.057zm.863-.024c.02 0 .036-.015.036-.033 0-.019-.016-.034-.036-.034-.02 0-.036.015-.036.034 0 .018.016.033.036.033zm-3.453.4c.01 0 .018-.008.018-.017 0-.01-.008-.017-.018-.017-.01 0-.018.008-.018.017 0 .01.009.017.018.017zm1.726.057a.076.076 0 0 0 .078-.074c0-.041-.035-.074-.079-.074a.076.076 0 0 0-.078.074c0 .04.035.074.078.074zm.863.019c.055 0 .1-.042.1-.094s-.045-.094-.1-.094c-.056 0-.1.042-.1.094s.044.094.1.094zm.863-.016c.045 0 .082-.035.082-.077a.08.08 0 0 0-.082-.078c-.046 0-.083.035-.083.078 0 .042.037.077.083.077zm.862-.03c.028 0 .05-.021.05-.047s-.022-.047-.05-.047c-.028 0-.05.02-.05.047 0 .026.022.047.05.047zm-2.155.454c.057 0 .103-.044.103-.097a.1.1 0 0 0-.103-.098.1.1 0 0 0-.104.098c0 .053.046.097.104.097zm.862.027c.073 0 .133-.056.133-.124 0-.07-.06-.125-.133-.125a.129.129 0 0 0-.132.125c0 .068.059.124.132.124zm.863-.013c.065 0 .118-.05.118-.111 0-.062-.053-.111-.118-.111s-.118.05-.118.11c0 .062.053.112.118.112zm.864-.034a.08.08 0 0 0 .082-.078c0-.042-.037-.077-.082-.077-.046 0-.083.035-.083.077a.08.08 0 0 0 .082.078zm.862-.04c.022 0 .04-.017.04-.037 0-.02-.018-.037-.04-.037-.022 0-.04.016-.04.037 0 .02.018.037.04.037zm-2.589.5c.081 0 .147-.062.147-.138 0-.076-.066-.138-.147-.138-.081 0-.147.062-.147.138 0 .076.066.138.147.138zm.863.02c.093 0 .169-.07.169-.158 0-.087-.076-.158-.169-.158-.093 0-.168.07-.168.158 0 .087.075.158.168.158zm.862-.034c.074 0 .133-.056.133-.124a.129.129 0 0 0-.132-.125c-.073 0-.133.056-.133.125 0 .068.06.124.133.124zm.864-.047c.045 0 .082-.034.082-.077s-.037-.077-.082-.077c-.046 0-.083.034-.083.077s.037.077.083.077zm.862-.043c.02 0 .036-.015.036-.034 0-.018-.016-.033-.036-.033-.02 0-.035.015-.035.033 0 .019.016.034.035.034zm-3.022.537c.095 0 .172-.073.172-.162 0-.089-.077-.161-.172-.161-.095 0-.172.072-.172.161 0 .09.077.162.172.162zm.863.01c.1 0 .182-.077.182-.172 0-.094-.082-.171-.182-.171-.101 0-.183.077-.183.171 0 .095.082.172.183.172zm.863-.024c.086 0 .157-.066.157-.148 0-.081-.07-.147-.158-.147-.087 0-.157.066-.157.147 0 .082.07.148.157.148zm.863-.051c.057 0 .103-.043.103-.097 0-.054-.046-.097-.103-.097-.058 0-.104.043-.104.097a.1.1 0 0 0 .104.098zm.863-.05c.027 0 .05-.02.05-.046s-.022-.047-.05-.047c-.028 0-.05.02-.05.047 0 .026.022.047.05.047zm1.295 1.19c.014 0 .025-.01.025-.023s-.011-.023-.025-.023c-.014 0-.025.01-.025.023s.011.024.025.024zm-4.744-.671c.093 0 .168-.071.168-.158a.163.163 0 0 0-.168-.159c-.093 0-.169.071-.169.159 0 .087.076.158.169.158zm.863.013c.1 0 .182-.076.182-.171 0-.095-.082-.172-.182-.172-.101 0-.183.077-.183.172 0 .095.082.171.183.171zm.862 0c.1 0 .183-.076.183-.171 0-.095-.082-.172-.183-.172-.101 0-.183.077-.183.172 0 .095.082.171.183.171zm.864-.033c.08 0 .146-.062.146-.138a.142.142 0 0 0-.146-.138c-.082 0-.147.062-.147.138 0 .076.065.138.147.138zm.861-.058c.048 0 .086-.036.086-.08 0-.045-.038-.08-.086-.08-.047 0-.086.035-.086.08 0 .044.039.08.086.08zm.863-.057c.014 0 .026-.01.026-.023s-.012-.024-.026-.024c-.014 0-.025.01-.025.024 0 .013.011.023.025.023zm-7.333.414c.01 0 .018-.008.018-.017 0-.01-.008-.017-.018-.017-.01 0-.018.008-.018.017 0 .01.008.017.018.017zm.863.037c.031 0 .057-.024.057-.054s-.026-.054-.057-.054c-.032 0-.058.024-.058.054s.026.054.058.054zm.862.036c.054 0 .097-.04.097-.09 0-.05-.043-.091-.097-.091-.053 0-.096.04-.096.09 0 .05.043.091.096.091zm.863.038c.075 0 .136-.058.136-.128s-.06-.128-.136-.128c-.075 0-.136.057-.136.128 0 .07.06.128.136.128zm1.295.043c.1 0 .182-.076.182-.171 0-.095-.082-.172-.182-.172-.101 0-.183.077-.183.172 0 .095.082.171.183.171zm.862 0c.1 0 .183-.076.183-.171 0-.095-.082-.172-.183-.172-.101 0-.183.077-.183.172 0 .095.082.171.183.171zm.863 0c.101 0 .183-.076.183-.171 0-.095-.082-.172-.183-.172-.1 0-.182.077-.182.172 0 .095.081.171.182.171zm.863-.06c.065 0 .118-.05.118-.111 0-.062-.053-.111-.118-.111-.066 0-.119.05-.119.11 0 .062.053.112.119.112zm.862-.068c.026 0 .047-.02.047-.043 0-.024-.02-.044-.047-.044a.045.045 0 0 0-.046.044c0 .024.02.043.046.043zm-1.725.515c.101 0 .183-.077.183-.172 0-.095-.082-.172-.183-.172-.1 0-.182.077-.182.172 0 .095.081.172.182.172zm.863-.041c.077 0 .14-.058.14-.13 0-.073-.063-.132-.14-.132-.078 0-.14.059-.14.131 0 .073.062.131.14.131zm.862-.08c.03 0 .054-.023.054-.05a.052.052 0 0 0-.053-.051c-.03 0-.054.022-.054.05 0 .028.024.05.054.05zm-1.725.524c.101 0 .183-.077.183-.172 0-.094-.082-.171-.183-.171-.1 0-.182.077-.182.171 0 .095.081.172.182.172zm.863-.027c.085 0 .154-.065.154-.145 0-.08-.069-.144-.154-.144-.085 0-.154.064-.154.144 0 .08.069.145.154.145zm.862-.091c.032 0 .058-.024.058-.054s-.026-.054-.058-.054c-.031 0-.057.024-.057.054s.026.054.057.054zm-1.724.528c.101 0 .183-.077.183-.172 0-.095-.082-.172-.183-.172-.1 0-.183.077-.183.172 0 .095.082.172.183.172zm.864-.027a.15.15 0 0 0 .153-.145c0-.08-.069-.144-.154-.144-.085 0-.154.064-.154.144 0 .08.069.145.154.145zm.863-.095c.03 0 .053-.022.053-.05 0-.028-.024-.05-.053-.05-.03 0-.054.022-.054.05 0 .028.024.05.054.05zm.429-1.22c.006 0 .011-.003.011-.009a.01.01 0 0 0-.01-.01c-.007 0-.011.005-.011.01 0 .006.004.01.01.01zm-1.725 1.747c.1 0 .182-.077.182-.172a.177.177 0 0 0-.182-.172c-.101 0-.183.077-.183.172 0 .095.082.172.183.172zm.863-.095c.045 0 .082-.034.082-.077s-.037-.077-.083-.077c-.045 0-.082.034-.082.077s.037.077.082.077zm-1.295.495c.101 0 .183-.076.183-.171 0-.095-.082-.172-.183-.172-.1 0-.182.077-.182.172 0 .095.081.171.182.171zm.863-.074c.057 0 .104-.043.104-.097 0-.054-.047-.098-.104-.098a.1.1 0 0 0-.104.098c0 .053.046.097.104.097zm-1.294.476c.1 0 .182-.077.182-.172 0-.095-.082-.171-.182-.171-.101 0-.183.077-.183.171 0 .095.082.172.183.172zm.863-.071c.06 0 .107-.045.107-.1a.104.104 0 0 0-.107-.102c-.06 0-.108.045-.108.101 0 .056.048.1.108.1zm-.864.449c.087 0 .158-.066.158-.148 0-.082-.071-.148-.158-.148-.087 0-.158.066-.158.148 0 .082.07.148.158.148zm.864-.101c.028 0 .05-.02.05-.047 0-.026-.022-.047-.05-.047-.028 0-.05.021-.05.047s.022.047.05.047zm-.868.452c.051 0 .093-.04.093-.088 0-.048-.042-.087-.093-.087-.052 0-.093.039-.093.087a.09.09 0 0 0 .093.088zm-.427.383c.04 0 .072-.03.072-.067 0-.037-.032-.067-.072-.067-.04 0-.072.03-.072.067 0 .037.033.067.072.067zm.001.348a.01.01 0 0 0 0-.02c-.006 0-.011.005-.011.01s.005.01.01.01zM9.798 8.062c.1 0 .183-.076.183-.171 0-.095-.082-.172-.183-.172-.101 0-.183.077-.183.172 0 .095.082.171.183.171z"/><path fill="#0041FF" d="M8.934 12.19c-.078 0-.142.06-.142.134 0 .073.064.133.142.133.078 0 .142-.06.142-.133 0-.074-.064-.134-.142-.134zm.863.072c-.036 0-.066.028-.066.062s.03.062.066.062c.036 0 .066-.028.066-.062s-.03-.062-.066-.062zm.433-.422c-.047 0-.085.036-.085.08 0 .042.038.078.084.078.046 0 .084-.036.084-.079 0-.043-.038-.078-.084-.078zm.43-.415a.092.092 0 0 0-.095.09c0 .049.042.089.095.089s.095-.04.095-.09c0-.05-.042-.09-.095-.09zm-.005-.445c-.077 0-.14.058-.14.13 0 .073.063.131.14.131.077 0 .139-.058.139-.13 0-.073-.062-.131-.14-.131zM5.484 6.312c.032 0 .06-.025.06-.056 0-.03-.028-.056-.06-.056-.033 0-.06.025-.06.056s.027.056.06.056zm.862.017c.043 0 .078-.033.078-.073 0-.04-.035-.073-.078-.073s-.077.033-.077.073c0 .04.034.073.077.073zm.864-.006c.039 0 .071-.03.071-.067 0-.037-.032-.067-.072-.067-.04 0-.071.03-.071.067 0 .037.032.067.071.067zm.43.432c.06 0 .108-.045.108-.101 0-.056-.048-.1-.107-.1-.06 0-.108.044-.108.1 0 .056.048.1.108.1zm-.862.005c.062 0 .113-.047.113-.106s-.05-.107-.113-.107-.114.048-.114.107.05.106.114.106zm-.863-.005c.06 0 .108-.045.108-.101 0-.056-.049-.1-.108-.1-.06 0-.107.044-.107.1 0 .056.048.1.107.1zm.429-.871c.02 0 .036-.015.036-.033 0-.019-.016-.034-.036-.034a.034.034 0 0 0-.035.034c0 .018.016.033.035.033zm-.429-.416c.02 0 .036-.015.036-.033 0-.019-.016-.034-.036-.034-.02 0-.036.015-.036.034 0 .018.016.033.036.033zm.863 0c.02 0 .036-.015.036-.033 0-.019-.016-.034-.036-.034-.02 0-.036.015-.036.034 0 .018.016.033.036.033zm-1.296.405c.013 0 .024-.01.024-.022 0-.013-.01-.023-.024-.023a.023.023 0 0 0-.024.023c0 .012.01.022.024.022zm1.726.006c.016 0 .03-.013.03-.028 0-.016-.014-.028-.03-.028-.017 0-.03.012-.03.028 0 .015.013.028.03.028zm1.296.405c.017 0 .03-.012.03-.028 0-.015-.013-.028-.03-.028-.016 0-.03.013-.03.028 0 .016.014.028.03.028zm-.864.034c.037 0 .067-.028.067-.062s-.03-.061-.066-.061c-.036 0-.066.027-.066.061s.03.062.066.062zm1.727.386c.03 0 .054-.022.054-.05 0-.028-.024-.05-.054-.05s-.054.022-.054.05c0 .028.025.05.054.05zM4.62 6.67c.01 0 .018-.007.018-.016 0-.01-.008-.017-.018-.017a.017.017 0 0 0-.017.017c0 .01.008.017.017.017zm.863.068c.05 0 .09-.038.09-.084 0-.047-.04-.084-.09-.084-.05 0-.09.037-.09.084 0 .046.04.084.09.084zm3.021-.023c.036 0 .066-.027.066-.061s-.03-.062-.066-.062c-.036 0-.066.028-.066.062s.03.061.066.061zm-3.454.427a.08.08 0 0 0 .083-.079c0-.043-.037-.078-.084-.078-.046 0-.083.035-.083.078a.08.08 0 0 0 .083.079zm4.313.011c.053 0 .096-.04.096-.09 0-.05-.043-.09-.096-.09a.092.092 0 0 0-.095.09c0 .05.042.09.095.09zm.431-.017c.043 0 .078-.032.078-.073 0-.04-.035-.072-.078-.072-.042 0-.077.032-.077.072 0 .04.035.073.077.073zm-4.742.43c.056 0 .101-.043.101-.095a.098.098 0 0 0-.101-.096c-.056 0-.102.043-.102.096 0 .052.046.095.102.095zm5.608-.017c.046 0 .083-.035.083-.078a.08.08 0 0 0-.083-.079c-.046 0-.084.035-.084.079 0 .043.038.078.084.078zm-6.47.361c.01 0 .018-.008.018-.017 0-.01-.008-.017-.018-.017-.01 0-.018.007-.018.017 0 .009.008.016.018.016zm.862.095c.066 0 .12-.05.12-.113 0-.061-.054-.112-.12-.112s-.12.05-.12.112.054.113.12.113zm-.863.3c.017 0 .03-.012.03-.028 0-.015-.013-.028-.03-.028-.016 0-.03.013-.03.028 0 .016.014.028.03.028zm.863.101c.076 0 .138-.058.138-.129 0-.071-.062-.129-.138-.129a.134.134 0 0 0-.137.13c0 .07.062.128.137.128zm-.432.364c.053 0 .095-.04.095-.09 0-.05-.042-.09-.095-.09s-.096.04-.096.09c0 .05.043.09.096.09zm6.904-.375c.07 0 .125-.053.125-.118s-.056-.117-.125-.117c-.07 0-.126.052-.126.117s.056.118.126.118zm.431.403c.07 0 .126-.053.126-.118s-.056-.117-.126-.117c-.069 0-.125.052-.125.117s.056.118.125.118zm.001.579c-.069 0-.125.053-.125.118s.056.118.125.118c.07 0 .126-.053.126-.118s-.056-.118-.126-.118zm-7.334-.192c.056 0 .101-.042.101-.095s-.045-.095-.101-.095c-.056 0-.101.042-.101.095s.045.095.101.095zm7.765-.168a.075.075 0 0 0-.077.073c0 .04.034.073.077.073s.078-.033.078-.073c0-.04-.035-.073-.078-.073zm-.432-.667c.042 0 .077-.033.077-.073 0-.04-.035-.073-.077-.073-.043 0-.078.033-.078.073 0 .04.035.073.078.073zM4.62 9.394c-.06 0-.107.045-.107.1 0 .056.048.102.107.102.06 0 .108-.046.108-.101 0-.056-.048-.101-.108-.101zm7.765.028a.075.075 0 0 0-.077.073c0 .04.034.073.077.073s.078-.033.078-.073c0-.04-.035-.073-.078-.073zm-7.765.373c-.06 0-.107.045-.107.1 0 .056.048.101.107.101.06 0 .108-.045.108-.1 0-.056-.048-.101-.108-.101zm7.334-.017c-.069 0-.125.053-.125.118s.056.118.125.118c.07 0 .126-.053.126-.118s-.056-.118-.126-.118zm-7.764.47a.053.053 0 0 0-.054.051c0 .028.024.05.053.05.03 0 .054-.022.054-.05 0-.028-.024-.05-.054-.05zm.862-.106c-.092 0-.167.07-.167.157s.075.157.167.157c.092 0 .167-.07.167-.157s-.075-.157-.167-.157zm-.862.512c-.027 0-.048.02-.048.045 0 .025.021.045.047.045.027 0 .048-.02.048-.045 0-.025-.021-.045-.048-.045zm.862-.112c-.092 0-.167.07-.167.157s.075.157.167.157c.092 0 .167-.07.167-.157s-.075-.157-.167-.157zm-.437.473c-.056 0-.101.043-.101.095 0 .053.045.096.101.096.056 0 .102-.043.102-.096 0-.052-.046-.095-.102-.095zm6.472-.005c-.06 0-.107.045-.107.1 0 .056.048.101.107.101.06 0 .107-.045.107-.1a.105.105 0 0 0-.107-.102zm-6.467.415c-.053 0-.096.04-.096.09 0 .049.043.089.096.089.053 0 .095-.04.095-.09 0-.05-.042-.09-.095-.09zm-.431.061c-.016 0-.03.013-.03.028 0 .016.014.028.03.028.017 0 .03-.012.03-.028 0-.015-.013-.028-.03-.028zm.863.299c-.079 0-.143.06-.143.134 0 .074.064.135.143.135.08 0 .144-.06.144-.135 0-.074-.064-.134-.144-.134zm-.432.472c-.04 0-.071.03-.071.067 0 .037.032.067.071.067.04 0 .072-.03.072-.067 0-.037-.032-.067-.072-.067zm5.609.056c-.007 0-.012.005-.012.01 0 .007.005.012.012.012.006 0 .012-.005.012-.011 0-.006-.006-.011-.012-.011zm-5.177.311c-.06 0-.108.045-.108.101 0 .056.048.1.108.1s.107-.044.107-.1c0-.056-.048-.1-.107-.1zm3.451-.022c-.072 0-.13.055-.13.123s.058.123.13.123c.073 0 .132-.055.132-.123s-.06-.123-.132-.123zM4.62 13.1c-.02 0-.036.015-.036.034 0 .018.016.033.036.033.02 0 .036-.015.036-.033 0-.019-.016-.034-.036-.034zm.864-.084c-.07 0-.126.053-.126.118s.057.117.126.117.125-.052.125-.117-.056-.118-.125-.118zm.862-.051a.174.174 0 0 0-.179.169c0 .092.08.168.18.168.098 0 .178-.076.178-.168a.174.174 0 0 0-.179-.169zm.864.006c-.096 0-.174.073-.174.163 0 .09.078.162.173.162.096 0 .173-.072.173-.162a.168.168 0 0 0-.173-.163zm.862.067a.098.098 0 0 0-.101.096c0 .052.045.095.101.095.056 0 .102-.043.102-.095 0-.053-.046-.096-.102-.096zm-3.887-.725c-.007 0-.012.005-.012.01 0 .007.005.012.012.012.006 0 .012-.005.012-.011 0-.006-.006-.011-.012-.011zm1.299 1.147c-.046 0-.084.035-.084.078s.038.078.084.078c.046 0 .084-.035.084-.078s-.038-.079-.084-.079zm.862-.034c-.066 0-.12.05-.12.112s.054.112.12.112.12-.05.12-.112-.054-.112-.12-.112zm.863.022c-.053 0-.096.04-.096.09 0 .05.043.09.096.09.053 0 .095-.04.095-.09 0-.05-.042-.09-.095-.09zm.863.068c-.013 0-.024.01-.024.022 0 .012.01.022.024.022.013 0 .024-.01.024-.022 0-.012-.011-.022-.024-.022zm-2.157.368c-.03 0-.054.023-.054.05 0 .028.024.05.054.05s.054-.022.054-.05c0-.027-.024-.05-.054-.05zm.863.011a.041.041 0 0 0-.042.04c0 .02.019.038.042.038.023 0 .042-.017.042-.039 0-.021-.019-.039-.042-.039zm-1.726.023c-.01 0-.018.007-.018.016 0 .01.008.017.018.017.01 0 .018-.007.018-.017 0-.009-.008-.016-.018-.016zm3.883-.801a.017.017 0 0 0-.018.017c0 .009.008.017.018.017.01 0 .018-.008.018-.017 0-.01-.008-.017-.018-.017z"/><path fill="#00C8FF" d="M4.403 12.92c-.007 0-.012.005-.012.011 0 .006.005.01.012.01.006 0 .012-.004.012-.01s-.006-.01-.012-.01zM6.14 4.047c.013 0 .025-.01.025-.023S6.153 4 6.139 4c-.014 0-.025.01-.025.024 0 .013.011.023.025.023zm3.008 1.216c.014 0 .025-.01.025-.024 0-.013-.01-.023-.025-.023-.014 0-.025.01-.025.023s.011.024.025.024zm-3.883-.787c.028 0 .05-.021.05-.047s-.022-.047-.05-.047c-.028 0-.05.02-.05.047 0 .026.022.047.05.047zm.863 0c.028 0 .05-.021.05-.047s-.022-.047-.05-.047c-.027 0-.05.02-.05.047 0 .026.023.047.05.047zm.862-.024c.015 0 .026-.01.026-.023s-.011-.024-.025-.024c-.014 0-.025.01-.025.024 0 .013.011.023.025.023zm-2.588.41c.017 0 .03-.012.03-.028 0-.015-.013-.027-.03-.027-.016 0-.029.012-.029.027 0 .016.013.028.03.028zm.863.058c.051 0 .092-.038.092-.086 0-.048-.041-.086-.092-.086-.05 0-.092.038-.092.086 0 .048.041.086.092.086zm.863.017c.06 0 .109-.046.109-.103 0-.056-.05-.102-.11-.102s-.108.046-.108.102c0 .057.048.103.109.103zm.863-.024c.046 0 .084-.035.084-.079 0-.043-.038-.078-.084-.078-.046 0-.084.035-.084.078 0 .044.038.079.084.079zm.862-.04c.024 0 .042-.017.042-.039a.041.041 0 0 0-.042-.04.041.041 0 0 0-.041.04c0 .022.018.04.041.04zM6.57 4.04c.01 0 .017-.007.017-.016 0-.008-.007-.015-.017-.015-.009 0-.016.007-.016.015 0 .01.007.016.016.016zM4.403 5.282c.025 0 .046-.02.046-.043 0-.024-.021-.043-.046-.043-.026 0-.047.02-.047.043 0 .024.021.043.047.043zm.862.087c.077 0 .139-.058.139-.13 0-.072-.062-.13-.139-.13-.076 0-.138.058-.138.13 0 .072.062.13.138.13zm.862.023c.09 0 .164-.068.164-.153 0-.085-.073-.154-.164-.154-.09 0-.163.07-.163.154 0 .085.073.153.163.153zm.863-.023c.077 0 .14-.058.14-.13 0-.072-.063-.13-.14-.13a.133.133 0 0 0-.137.13c0 .072.061.13.138.13zm.863-.039c.053 0 .097-.041.097-.09 0-.05-.044-.091-.097-.091-.053 0-.096.04-.096.09 0 .05.043.09.096.09zm.863-.044c.028 0 .05-.021.05-.047s-.022-.047-.05-.047c-.027 0-.05.021-.05.047s.023.047.05.047zm-4.314.409c.03 0 .055-.023.055-.051 0-.028-.025-.051-.055-.051s-.054.023-.054.05c0 .029.024.052.054.052zm.863.106c.093 0 .168-.07.168-.157s-.075-.158-.168-.158a.162.162 0 0 0-.167.158c0 .087.075.157.167.157zm.863.044c.118 0 .214-.09.214-.201 0-.111-.096-.2-.214-.2s-.214.089-.214.2c0 .11.096.2.214.2zm.862-.025c.105 0 .189-.078.189-.176 0-.098-.084-.177-.189-.177-.104 0-.188.08-.188.177 0 .098.084.177.188.177zm.864-.038c.08 0 .146-.062.146-.138a.142.142 0 0 0-.146-.138c-.081 0-.147.062-.147.138 0 .076.066.138.147.138zm.862-.044c.055 0 .1-.042.1-.094s-.045-.094-.1-.094c-.056 0-.1.042-.1.094s.044.094.1.094zm.864-.051c.025 0 .045-.02.045-.043 0-.024-.02-.043-.046-.043-.025 0-.046.019-.046.043 0 .024.02.043.046.043zm-5.178.417c.033 0 .06-.025.06-.055s-.027-.055-.06-.055a.056.056 0 0 0-.058.055c0 .03.026.055.058.055zm.863.126c.107 0 .193-.081.193-.181 0-.1-.086-.181-.193-.181-.106 0-.193.08-.193.18 0 .1.087.182.193.182zm.863.02c.118 0 .214-.09.214-.201 0-.111-.096-.2-.214-.2s-.214.089-.214.2c0 .11.096.2.214.2zm.862 0c.118 0 .214-.09.214-.201 0-.111-.096-.2-.214-.2s-.214.089-.214.2c0 .11.096.2.214.2zm.863-.02c.106 0 .193-.081.193-.181 0-.1-.087-.181-.193-.181-.107 0-.193.08-.193.18 0 .1.086.182.193.182zm.863-.043c.081 0 .147-.062.147-.138 0-.076-.066-.138-.147-.138-.081 0-.147.062-.147.138 0 .076.066.138.147.138zm.863-.047a.094.094 0 0 0 .096-.091c0-.05-.043-.09-.096-.09-.053 0-.097.04-.097.09 0 .05.044.09.097.09zm.863-.056c.02 0 .038-.015.038-.035 0-.02-.017-.035-.038-.035-.02 0-.038.015-.038.035 0 .02.017.035.038.035zm-5.608.48c.065 0 .118-.05.118-.11 0-.061-.053-.11-.118-.11s-.117.049-.117.11c0 .06.052.11.117.11zm.862.09c.118 0 .214-.09.214-.2 0-.111-.096-.201-.214-.201s-.214.09-.214.2c0 .111.096.201.214.201zm.864 0c.118 0 .213-.09.213-.2 0-.111-.095-.201-.214-.201-.118 0-.213.09-.213.2 0 .111.095.201.213.201zm.862 0c.118 0 .213-.09.213-.2 0-.111-.095-.201-.213-.201s-.214.09-.214.2c0 .111.096.201.214.201zm.863-.004c.115 0 .21-.088.21-.196 0-.109-.095-.197-.21-.197-.116 0-.21.088-.21.197 0 .108.094.196.21.196zm.863-.043c.09 0 .163-.068.163-.153a.159.159 0 0 0-.163-.154c-.09 0-.164.069-.164.154 0 .085.074.153.164.153zm.862-.047c.063 0 .114-.048.114-.106 0-.059-.05-.107-.113-.107s-.114.048-.114.107c0 .058.051.106.114.106zm.863-.055c.03 0 .054-.023.054-.051 0-.029-.024-.051-.054-.051s-.055.022-.055.05c0 .029.025.052.055.052zm-6.471.416c.037 0 .067-.028.067-.063 0-.034-.03-.063-.067-.063-.037 0-.067.029-.067.063 0 .035.03.063.067.063zm.863.122c.11 0 .197-.083.197-.185s-.088-.185-.197-.185c-.108 0-.197.083-.197.185s.089.185.197.185zm.863.017c.118 0 .214-.09.214-.202 0-.11-.096-.2-.214-.2s-.214.09-.214.2c0 .111.096.201.214.201zm.862 0c.118 0 .214-.09.214-.202 0-.11-.096-.2-.214-.2s-.214.09-.214.2c0 .111.096.201.214.201zm.863 0c.118 0 .214-.09.214-.202 0-.11-.096-.2-.214-.2s-.213.09-.213.2c0 .111.095.201.213.201zm.863 0c.118 0 .213-.09.213-.202 0-.11-.095-.2-.213-.2s-.214.09-.214.2c0 .111.096.201.214.201zm.863-.032c.1 0 .18-.076.18-.17 0-.093-.08-.169-.18-.169-.1 0-.18.076-.18.17 0 .093.08.169.18.169zm.862-.051c.07 0 .126-.053.126-.118 0-.066-.056-.119-.126-.119s-.126.053-.126.119c0 .065.057.118.126.118zm.863-.06c.035 0 .063-.026.063-.059 0-.032-.028-.058-.063-.058s-.063.026-.063.058c0 .033.028.06.063.06zm-6.902.409c.037 0 .067-.028.067-.062 0-.035-.03-.063-.067-.063-.037 0-.067.028-.067.063 0 .034.03.062.067.062zm.863.118c.107 0 .193-.08.193-.18 0-.1-.086-.182-.193-.182-.106 0-.193.081-.193.181 0 .1.087.181.193.181zm.863.02c.118 0 .214-.09.214-.2 0-.112-.096-.202-.214-.202s-.214.09-.214.201c0 .111.096.2.214.2zm.862 0c.118 0 .214-.09.214-.2 0-.112-.096-.202-.214-.202s-.214.09-.214.201c0 .111.096.2.214.2zm.863 0c.118 0 .214-.09.214-.2 0-.112-.096-.202-.214-.202s-.213.09-.213.201c0 .111.095.2.213.2zm.863 0c.118 0 .213-.09.213-.2 0-.112-.095-.202-.213-.202s-.214.09-.214.201c0 .111.096.2.214.2zm.863 0c.118 0 .214-.09.214-.2 0-.112-.096-.202-.214-.202s-.214.09-.214.201c0 .111.096.2.214.2zm.863-.047c.09 0 .163-.069.163-.154 0-.084-.073-.153-.163-.153-.09 0-.164.069-.164.153 0 .085.073.154.164.154zm.863-.059c.055 0 .1-.043.1-.095 0-.052-.045-.094-.1-.094-.056 0-.1.042-.1.094s.044.095.1.095zm.862-.068c.016 0 .03-.011.03-.027 0-.015-.014-.027-.03-.027s-.03.012-.03.027c0 .016.014.028.03.028zm-7.334.492c.068 0 .122-.05.122-.114 0-.063-.054-.114-.122-.114-.067 0-.121.051-.121.114s.054.114.121.114zm.863.087c.118 0 .214-.09.214-.201 0-.11-.096-.2-.214-.2s-.214.09-.214.2c0 .11.096.2.214.2zm.864 0c.118 0 .213-.09.213-.201 0-.11-.095-.2-.214-.2-.118 0-.213.09-.213.2 0 .11.095.2.213.2zm.862 0c.118 0 .213-.09.213-.201 0-.11-.095-.2-.213-.2s-.214.09-.214.2c0 .11.096.2.214.2zm.863 0c.118 0 .214-.09.214-.201 0-.11-.096-.2-.214-.2s-.214.09-.214.2c0 .11.096.2.214.2zm.862 0c.118 0 .214-.09.214-.201 0-.11-.096-.2-.214-.2s-.213.09-.213.2c0 .11.095.2.213.2zm.863 0c.118 0 .213-.09.213-.201 0-.11-.095-.2-.213-.2s-.214.09-.214.2c0 .11.096.2.214.2zm.866-.035c.093 0 .168-.071.168-.158a.163.163 0 0 0-.168-.159c-.093 0-.169.071-.169.159 0 .087.075.158.169.158zm.86-.076c.053 0 .096-.04.096-.09 0-.05-.043-.09-.096-.09-.053 0-.096.04-.096.09 0 .05.043.09.096.09zm.864-.07a.02.02 0 0 0 .02-.02c0-.01-.01-.02-.02-.02-.012 0-.022.01-.022.02 0 .011.01.02.021.02zm-7.767.499c.068 0 .122-.05.122-.114 0-.063-.054-.114-.122-.114-.067 0-.121.051-.121.114s.054.114.121.114zm.863.087c.118 0 .214-.09.214-.201 0-.11-.096-.2-.214-.2s-.214.09-.214.2c0 .11.096.2.214.2zm.864 0c.118 0 .213-.09.213-.201 0-.11-.095-.2-.214-.2-.118 0-.213.09-.213.2 0 .11.095.2.213.2zm.862 0c.118 0 .213-.09.213-.201 0-.11-.095-.2-.213-.2s-.214.09-.214.2c0 .11.096.2.214.2zm.863 0c.118 0 .214-.09.214-.201 0-.11-.096-.2-.214-.2s-.214.09-.214.2c0 .11.096.2.214.2zm.862 0c.118 0 .214-.09.214-.201 0-.11-.096-.2-.214-.2s-.213.09-.213.2c0 .11.095.2.213.2zm.863 0c.118 0 .213-.09.213-.201 0-.11-.095-.2-.213-.2s-.214.09-.214.2c0 .11.096.2.214.2zm.863-.026c.103 0 .187-.078.187-.175 0-.097-.084-.176-.187-.176s-.186.079-.186.176c0 .097.083.175.186.175zm.863-.073c.06 0 .109-.045.109-.102 0-.057-.049-.102-.109-.102s-.109.045-.109.102c0 .057.049.102.109.102zm.862-.067c.021 0 .038-.016.038-.035 0-.02-.017-.035-.038-.035-.02 0-.038.015-.038.035 0 .02.017.035.038.035zm-7.764.48c.065 0 .118-.05.118-.11 0-.061-.053-.11-.118-.11s-.117.049-.117.11c0 .06.052.11.117.11zm.862.091c.118 0 .214-.09.214-.201 0-.111-.096-.2-.214-.2s-.214.089-.214.2c0 .11.096.2.214.2zm.864 0c.118 0 .213-.09.213-.201 0-.111-.095-.2-.214-.2-.118 0-.213.089-.213.2 0 .11.095.2.213.2zm.862 0c.118 0 .213-.09.213-.201 0-.111-.095-.2-.213-.2s-.214.089-.214.2c0 .11.096.2.214.2zm.863 0c.118 0 .214-.09.214-.201 0-.111-.096-.2-.214-.2s-.214.089-.214.2c0 .11.096.2.214.2zm.862 0c.118 0 .214-.09.214-.201 0-.111-.096-.2-.214-.2s-.213.089-.213.2c0 .11.095.2.213.2zm.863 0c.118 0 .213-.09.213-.201 0-.111-.095-.2-.213-.2s-.214.089-.214.2c0 .11.096.2.214.2zm.863-.012c.111 0 .201-.085.201-.189s-.09-.189-.2-.189c-.112 0-.202.085-.202.189s.09.189.201.189zm.863-.071c.07 0 .126-.053.126-.118s-.056-.118-.126-.118-.126.053-.126.118.057.118.126.118zm.863-.075c.025 0 .046-.02.046-.043 0-.024-.02-.043-.046-.043s-.046.019-.046.043c0 .024.02.043.046.043zm-7.765.468c.062 0 .113-.048.113-.106 0-.06-.05-.107-.113-.107s-.113.048-.113.107c0 .058.05.106.113.106zm.862.095c.118 0 .214-.09.214-.201 0-.111-.096-.2-.214-.2s-.214.089-.214.2c0 .11.096.2.214.2zm.864 0c.118 0 .213-.09.213-.201 0-.111-.095-.2-.214-.2-.118 0-.213.089-.213.2 0 .11.095.2.213.2zm.862 0c.118 0 .213-.09.213-.201 0-.111-.095-.2-.213-.2s-.214.089-.214.2c0 .11.096.2.214.2zm.863 0c.118 0 .214-.09.214-.201 0-.111-.096-.2-.214-.2s-.214.089-.214.2c0 .11.096.2.214.2zm.862 0c.118 0 .214-.09.214-.201 0-.111-.096-.2-.214-.2s-.213.089-.213.2c0 .11.095.2.213.2zm.863 0c.118 0 .213-.09.213-.201 0-.111-.095-.2-.213-.2s-.214.089-.214.2c0 .11.096.2.214.2zm.863 0c.118 0 .214-.09.214-.201 0-.111-.096-.2-.214-.2s-.214.089-.214.2c0 .11.096.2.214.2zm.863-.067c.079 0 .143-.06.143-.134 0-.074-.064-.134-.143-.134a.138.138 0 0 0-.142.134c0 .074.064.134.142.134zm.863-.091c.025 0 .046-.02.046-.043 0-.024-.02-.043-.046-.043s-.046.019-.046.043c0 .024.02.043.046.043zm-7.765.464c.06 0 .109-.046.109-.102 0-.057-.05-.103-.11-.103s-.108.046-.108.103c0 .056.048.102.109.102zm.863.094c.116 0 .21-.088.21-.196 0-.11-.094-.197-.21-.197-.116 0-.21.088-.21.197 0 .108.094.196.21.196zm.863.004c.118 0 .213-.09.213-.2 0-.111-.095-.201-.214-.201-.118 0-.213.09-.213.2 0 .111.095.201.213.201zm.862 0c.118 0 .213-.09.213-.2 0-.111-.095-.201-.213-.201s-.214.09-.214.2c0 .111.096.201.214.201zm.863 0c.118 0 .214-.09.214-.2 0-.111-.096-.201-.214-.201s-.214.09-.214.2c0 .111.096.201.214.201zm.862 0c.118 0 .214-.09.214-.2 0-.111-.096-.201-.214-.201s-.213.09-.213.2c0 .111.095.201.213.201zm.863 0c.118 0 .213-.09.213-.2 0-.111-.095-.201-.213-.201s-.214.09-.214.2c0 .111.096.201.214.201zm.863 0c.118 0 .214-.09.214-.2 0-.111-.096-.201-.214-.201s-.214.09-.214.2c0 .111.096.201.214.201zm.857-.068c.075 0 .135-.056.135-.126s-.06-.128-.135-.128a.131.131 0 0 0-.135.128c0 .07.06.127.135.127zm.868-.097c.021 0 .038-.016.038-.035a.037.037 0 0 0-.038-.036c-.02 0-.038.016-.038.036 0 .02.017.035.038.035zm-7.764.467c.058 0 .105-.043.105-.098 0-.054-.047-.098-.105-.098-.058 0-.105.044-.105.098 0 .055.047.099.105.099zm.863.083c.106 0 .192-.08.192-.18 0-.1-.086-.182-.192-.182-.107 0-.193.081-.193.181 0 .1.086.181.193.181zm.863.02c.118 0 .213-.09.213-.2 0-.111-.095-.201-.214-.201-.118 0-.213.09-.213.2 0 .111.095.201.213.201zm.862 0c.118 0 .213-.09.213-.2 0-.111-.095-.201-.213-.201s-.214.09-.214.2c0 .111.096.201.214.201zm.863 0c.118 0 .214-.09.214-.2 0-.111-.096-.201-.214-.201s-.214.09-.214.2c0 .111.096.201.214.201zm.862 0c.118 0 .214-.09.214-.2 0-.111-.096-.201-.214-.201s-.213.09-.213.2c0 .111.095.201.213.201zm.863 0c.118 0 .213-.09.213-.2 0-.111-.095-.201-.213-.201s-.214.09-.214.2c0 .111.096.201.214.201zm.863 0c.118 0 .214-.09.214-.2 0-.111-.096-.201-.214-.201s-.214.09-.214.2c0 .111.096.201.214.201zm.863-.08c.07 0 .127-.054.127-.12a.123.123 0 0 0-.127-.12c-.071 0-.129.053-.129.12 0 .066.058.12.129.12zm.862-.097c.014 0 .025-.01.025-.024 0-.013-.01-.023-.025-.023-.014 0-.025.01-.025.023 0 .014.011.024.025.024zm-7.764.472c.053 0 .096-.04.096-.09a.094.094 0 0 0-.096-.091c-.054 0-.097.04-.097.09 0 .05.043.09.097.09zm.863.078c.1 0 .18-.075.18-.169 0-.093-.08-.169-.18-.169-.1 0-.18.076-.18.17 0 .093.08.168.18.168zm.863.032c.118 0 .213-.09.213-.2a.207.207 0 0 0-.214-.202.207.207 0 0 0-.213.201c0 .111.095.2.213.2zm.862 0c.118 0 .213-.09.213-.2 0-.112-.095-.202-.213-.202s-.214.09-.214.201c0 .111.096.2.214.2zm.863 0c.118 0 .214-.09.214-.2 0-.112-.096-.202-.214-.202s-.214.09-.214.201c0 .111.096.2.214.2zm.862 0c.118 0 .214-.09.214-.2 0-.112-.096-.202-.214-.202s-.213.09-.213.201c0 .111.095.2.213.2zm.863 0c.118 0 .213-.09.213-.2 0-.112-.095-.202-.213-.202s-.214.09-.214.201c0 .111.096.2.214.2zm.863 0c.118 0 .214-.09.214-.2 0-.112-.096-.202-.214-.202s-.214.09-.214.201c0 .111.096.2.214.2zm.862-.108c.055 0 .1-.041.1-.093 0-.051-.045-.093-.1-.093-.055 0-.1.042-.1.093 0 .052.045.094.1.094zm-7.333.363c.03 0 .055-.023.055-.05 0-.029-.025-.052-.055-.052s-.054.023-.054.051c0 .028.024.051.054.051zm.863.06c.065 0 .117-.05.117-.11 0-.062-.052-.11-.117-.11s-.118.048-.118.11c0 .06.053.11.118.11zm.863.086c.115 0 .21-.088.21-.197 0-.109-.095-.197-.21-.197-.116 0-.21.088-.21.197 0 .109.094.197.21.197zm.862.004c.118 0 .214-.09.214-.201 0-.11-.096-.2-.214-.2s-.214.09-.214.2c0 .11.096.2.214.2zm.863 0c.118 0 .214-.09.214-.201 0-.11-.096-.2-.214-.2s-.213.09-.213.2c0 .11.095.2.213.2zm.863 0c.118 0 .213-.09.213-.201 0-.11-.095-.2-.213-.2s-.214.09-.214.2c0 .11.096.2.214.2zm.863 0c.118 0 .214-.09.214-.201 0-.11-.096-.2-.214-.2s-.214.09-.214.2c0 .11.096.2.214.2zm.862 0c.118 0 .214-.09.214-.201 0-.11-.096-.2-.214-.2s-.214.09-.214.2c0 .11.096.2.214.2zm.863-.075c.074 0 .134-.056.134-.126s-.06-.126-.134-.126c-.074 0-.134.057-.134.126 0 .07.06.126.134.126zm.863-.106a.02.02 0 0 0 .021-.02.02.02 0 0 0-.02-.02.02.02 0 0 0-.021.02c0 .011.009.02.02.02zm-7.333.46c.044 0 .08-.034.08-.075 0-.041-.036-.075-.08-.075-.044 0-.08.034-.08.075 0 .041.036.075.08.075zm.863.067c.083 0 .15-.064.15-.142a.146.146 0 0 0-.15-.142c-.084 0-.151.064-.151.142 0 .078.067.142.15.142zm.863.058c.118 0 .213-.09.213-.2 0-.111-.095-.2-.214-.2-.118 0-.213.089-.213.2 0 .11.095.2.213.2zm.862 0c.118 0 .213-.09.213-.2 0-.111-.095-.2-.213-.2s-.214.089-.214.2c0 .11.096.2.214.2zm.863 0c.118 0 .214-.09.214-.2 0-.111-.096-.2-.214-.2s-.214.089-.214.2c0 .11.096.2.214.2zm.862 0c.118 0 .214-.09.214-.2 0-.111-.096-.2-.214-.2s-.213.089-.213.2c0 .11.095.2.213.2zm.863-.007c.114 0 .205-.087.205-.193 0-.107-.091-.193-.205-.193-.113 0-.205.086-.205.193 0 .106.092.193.205.193zm.863-.067c.074 0 .135-.056.135-.126s-.06-.126-.135-.126c-.074 0-.134.056-.134.126s.06.126.134.126zm.863-.099c.017 0 .03-.012.03-.027s-.013-.028-.03-.028a.029.029 0 0 0-.029.028c0 .015.013.027.03.027zm-6.902.445c.04 0 .071-.03.071-.067 0-.037-.032-.067-.071-.067-.04 0-.071.03-.071.067 0 .037.032.067.07.067zm.863.063c.076 0 .138-.058.138-.13 0-.072-.062-.13-.138-.13-.076 0-.138.058-.138.13 0 .072.062.13.138.13zm.863.058c.11 0 .2-.084.2-.188 0-.105-.09-.19-.2-.19-.112 0-.202.085-.202.19 0 .104.09.189.202.189zm.862.012c.118 0 .213-.09.213-.2 0-.111-.095-.2-.213-.2s-.214.089-.214.2c0 .11.096.2.214.2zm.863 0c.118 0 .214-.09.214-.2 0-.111-.096-.2-.214-.2s-.214.089-.214.2c0 .11.096.2.214.2zm.862 0c.118 0 .214-.09.214-.2 0-.111-.096-.2-.214-.2s-.213.089-.213.2c0 .11.095.2.213.2zm.863-.055c.086 0 .156-.065.156-.145 0-.08-.07-.146-.155-.146-.086 0-.156.065-.156.146 0 .08.07.146.155.146zm.863-.067c.046 0 .084-.035.084-.078s-.038-.079-.084-.079c-.046 0-.084.036-.084.079 0 .043.038.079.084.079zm-6.471.362c.02 0 .038-.016.038-.035a.037.037 0 0 0-.038-.036c-.02 0-.038.016-.038.036 0 .02.017.035.038.035zm.863.051c.051 0 .092-.039.092-.086a.09.09 0 0 0-.092-.087c-.05 0-.092.039-.092.087 0 .047.041.086.092.086zm.863.051c.081 0 .147-.061.147-.137 0-.076-.066-.138-.147-.138-.08 0-.147.062-.147.138 0 .076.066.137.147.137zm.862.048c.11 0 .198-.083.198-.185s-.088-.185-.197-.185c-.109 0-.197.083-.197.185s.088.185.197.185zm.863.015c.118 0 .214-.09.214-.2 0-.111-.096-.201-.214-.201s-.213.09-.213.2c0 .111.095.201.213.201zm.863-.011c.11 0 .201-.085.201-.19 0-.104-.09-.188-.201-.188-.111 0-.201.084-.201.189 0 .104.09.189.2.189zm.863-.059c.076 0 .138-.058.138-.13 0-.072-.062-.13-.138-.13-.077 0-.139.058-.139.13 0 .072.062.13.139.13zm.863-.067c.037 0 .067-.029.067-.063 0-.035-.03-.063-.067-.063-.037 0-.067.028-.067.063 0 .034.03.063.067.063zm-6.04.365c.014 0 .025-.01.025-.023s-.011-.024-.025-.024c-.014 0-.025.01-.025.024 0 .013.011.023.025.023zm.863.05a.076.076 0 0 0 .078-.074c0-.04-.035-.073-.078-.073s-.078.033-.078.073c0 .041.035.074.078.074zm.863.045c.07 0 .125-.053.125-.119 0-.065-.056-.118-.125-.118-.07 0-.126.053-.126.118 0 .066.056.118.126.118zm.862.035c.09 0 .164-.069.164-.154 0-.084-.073-.153-.163-.153-.09 0-.164.069-.164.153 0 .085.073.154.164.154zm.863.008c.095 0 .172-.073.172-.162 0-.089-.077-.161-.172-.161-.094 0-.171.072-.171.161 0 .09.077.162.171.162zm.863-.023c.081 0 .147-.062.147-.138 0-.076-.066-.138-.147-.138-.081 0-.147.062-.147.138 0 .076.066.137.147.137zm.863-.06c.046 0 .084-.035.084-.078 0-.044-.038-.079-.084-.079-.046 0-.084.035-.084.079 0 .043.038.078.084.078zm-5.177.342c.01 0 .017-.007.017-.016 0-.008-.007-.015-.017-.015-.009 0-.016.007-.016.015 0 .01.007.016.016.016zm.864.04a.057.057 0 0 0 .058-.056.057.057 0 0 0-.058-.055c-.033 0-.059.025-.059.055s.026.056.059.056zm.862.038c.056 0 .1-.041.1-.093a.097.097 0 0 0-.1-.095c-.056 0-.1.042-.1.095 0 .052.044.094.1.094zm.862.024c.07 0 .127-.053.127-.118s-.057-.118-.126-.118c-.07 0-.126.053-.126.118s.056.118.126.118zm.864.004c.071 0 .13-.054.13-.122 0-.067-.059-.122-.13-.122-.072 0-.13.055-.13.122 0 .068.058.122.13.122zm.862-.035a.09.09 0 0 0 .092-.087c0-.047-.04-.086-.092-.086-.05 0-.092.039-.092.086a.09.09 0 0 0 .092.087zm.864-.067a.02.02 0 0 0 .02-.02.02.02 0 0 0-.02-.02.02.02 0 0 0-.021.02c0 .011.009.02.02.02zm-4.314.424c.023 0 .041-.017.041-.039a.04.04 0 0 0-.041-.039.04.04 0 0 0-.042.04c0 .021.018.039.042.039zm.862.032c.041 0 .075-.032.075-.07 0-.04-.034-.07-.075-.07-.042 0-.075.03-.075.07 0 .038.033.07.075.07zm.862.016c.052 0 .093-.04.093-.087 0-.048-.041-.086-.092-.086s-.093.038-.093.086c0 .048.042.087.093.087zm.863-.004a.085.085 0 0 0 .088-.083c0-.045-.04-.083-.088-.083a.085.085 0 0 0-.088.083c0 .046.04.083.088.083zm.432-.024a.06.06 0 0 0 .062-.059.061.061 0 0 0-.062-.059.062.062 0 0 0-.063.06c0 .032.028.058.063.058zm-3.019.362c.01 0 .017-.007.017-.016 0-.008-.008-.015-.017-.015-.01 0-.017.007-.017.015 0 .009.008.016.017.016zm.862.023c.023 0 .042-.017.042-.039 0-.021-.019-.04-.042-.04-.023 0-.042.019-.042.04 0 .022.019.04.042.04zm.862.008c.029 0 .051-.02.051-.047 0-.026-.022-.047-.05-.047-.028 0-.05.021-.05.047s.022.047.05.047zm.863-.023c.014 0 .025-.01.025-.024a.024.024 0 0 0-.025-.024.025.025 0 0 0-.025.024c0 .013.011.024.025.024z"/><defs><linearGradient id="a" x1="3.349" x2="21.904" y1="3.122" y2="24.434" gradientUnits="userSpaceOnUse"><stop stop-color="#1A1E21"/><stop offset="1" stop-color="#06060A"/></linearGradient></defs></svg>