<svg xmlns="http://www.w3.org/2000/svg" width="18" height="18" viewBox="0 0 18 18"><path fill="#F0F3FA" d="M0 0h18v18H0z"/><ellipse cx="4.8" cy="4.79" fill="#007BC3" rx=".8" ry=".79"/><ellipse cx="4.8" cy="6.9" fill="#E84735" rx=".8" ry=".79"/><ellipse cx="4.8" cy="9" fill="#E84735" rx=".8" ry=".79"/><ellipse cx="4.8" cy="11.1" fill="#E84735" rx=".8" ry=".79"/><ellipse cx="4.8" cy="13.21" fill="#E84735" rx=".8" ry=".79"/><ellipse cx="6.9" cy="4.79" fill="#007BC3" rx=".8" ry=".79"/><ellipse cx="6.9" cy="6.9" fill="#E84735" rx=".8" ry=".79"/><ellipse cx="6.9" cy="9" fill="#E84735" rx=".8" ry=".79"/><ellipse cx="6.9" cy="11.1" fill="#E84735" rx=".8" ry=".79"/><ellipse cx="6.9" cy="13.21" fill="#E84735" rx=".8" ry=".79"/><ellipse cx="9" cy="4.79" fill="#007BC3" rx=".8" ry=".79"/><ellipse cx="9" cy="6.9" fill="#007BC3" rx=".8" ry=".79"/><ellipse cx="9" cy="9" fill="#007BC3" rx=".8" ry=".79"/><ellipse cx="9" cy="11.1" fill="#007BC3" rx=".8" ry=".79"/><ellipse cx="9" cy="13.21" fill="#007BC3" rx=".8" ry=".79"/><ellipse cx="11.1" cy="4.79" fill="#007BC3" rx=".8" ry=".79"/><ellipse cx="11.1" cy="6.9" fill="#E84735" rx=".8" ry=".79"/><ellipse cx="11.1" cy="9" fill="#E84735" rx=".8" ry=".79"/><ellipse cx="11.1" cy="11.1" fill="#E84735" rx=".8" ry=".79"/><ellipse cx="11.1" cy="13.21" fill="#E84735" rx=".8" ry=".79"/><ellipse cx="13.2" cy="4.79" fill="#007BC3" rx=".8" ry=".79"/><ellipse cx="13.2" cy="6.9" fill="#E84735" rx=".8" ry=".79"/><ellipse cx="13.2" cy="9" fill="#E84735" rx=".8" ry=".79"/><ellipse cx="13.2" cy="11.1" fill="#E84735" rx=".8" ry=".79"/><ellipse cx="13.2" cy="13.21" fill="#E84735" rx=".8" ry=".79"/></svg>