<svg xmlns="http://www.w3.org/2000/svg" width="18" height="18" viewBox="0 0 18 18"><path fill="#F0F3FA" d="M0 0h18v18H0z"/><path fill="#8F8F8F" d="M6.1 10.6c-.2 1.04-.5 1.4-1.16 1.4-.73-.08-.95-.65-.95-1.4C4 9.2 5.72 5 10 5c-2.33.84-3.46 3.1-3.9 5.6Z"/><path fill="#48BBFA" d="M9.1 10.6c-.2 1.04-.5 1.4-1.16 1.4-.73-.08-.95-.65-.95-1.4C7 9.2 8.72 5 13 5c-2.33.84-3.46 3.1-3.9 5.6Z"/><path fill="#040404" d="M12.1 10.6c-.19 1.03-.5 1.4-1.15 1.4-.73-.08-.95-.65-.95-1.4C10 9.2 11.72 5 16 5c-2.33.84-3.46 3.1-3.9 5.6Z"/></svg>