<svg xmlns="http://www.w3.org/2000/svg" width="135" height="40" viewBox="0 0 135 40"><path fill="#fff" d="M28 11H12a2 2 0 0 0-2 2v10c0 1.1.9 2 2 2h7.75v3.5h-5a.75.75 0 0 0 0 1.5h11.5a.75.75 0 0 0 0-1.5h-5V25H28a2 2 0 0 0 2-2V13a2 2 0 0 0-2-2z"/><path fill="#2A2E39" d="M14.45 19.5a.75.75 0 0 0 1.1 1l-1.1-1zm4.19-3.5.55-.5a.75.75 0 0 0-1.1 0l.55.5zm2.72 3-.55.5a.75.75 0 0 0 1.1 0l-.55-.5zm4.2-3.5a.75.75 0 0 0-1.11-1l1.1 1zm-10 5 3.63-4-1.1-1-3.64 4 1.1 1zm2.52-4 2.73 3 1.1-1-2.72-3-1.1 1zm3.84 3 3.63-4-1.1-1-3.64 4 1.1 1z"/><path fill="#fff" d="M43.34 13.1c1.4 0 2.45-.84 2.65-2.1v-.05h-.98V11c-.25.8-.83 1.25-1.67 1.25-1.18 0-1.94-.95-1.94-2.41 0-1.48.76-2.4 1.94-2.4.85 0 1.44.45 1.65 1.19l.02.09H46v-.04c-.2-1.26-1.26-2.12-2.65-2.12-1.8 0-2.94 1.26-2.94 3.27 0 2.02 1.14 3.29 2.94 3.29zm4.8-2.16 1.7 2.06h1.18l-2.03-2.45 1.95-2.17h-1.12l-1.68 1.9h-.16v-1.9h-.95V13h.95v-2.06h.16zm4.92 2.14c.61 0 1.14-.31 1.41-.8h.02V13h.95V9.81c0-.92-.71-1.52-1.84-1.52-1.14 0-1.83.61-1.9 1.4v.05h.9V9.7c.08-.37.42-.62.97-.62.59 0 .92.3.92.81v.35l-1.26.07c-1.1.07-1.72.56-1.72 1.37 0 .84.62 1.4 1.55 1.4zm-.59-1.42c0-.4.32-.65.89-.68l1.13-.07v.36c0 .6-.5 1.05-1.17 1.05-.51 0-.85-.25-.85-.66zM60.35 13V8.38h-.94v1.9c-.2.2-.57.33-.95.33-.65 0-1-.3-1-.93v-1.3h-.94v1.41c0 1 .6 1.64 1.69 1.64.46 0 .9-.15 1.17-.42h.03V13h.94zm2.57.08c.61 0 1.14-.31 1.41-.8h.02V13h.95V9.81c0-.92-.71-1.52-1.84-1.52-1.14 0-1.83.61-1.9 1.4v.05h.9V9.7c.08-.37.42-.62.97-.62.59 0 .92.3.92.81v.35l-1.26.07c-1.1.07-1.72.56-1.72 1.37 0 .84.62 1.4 1.55 1.4zm-.59-1.42c0-.4.32-.65.89-.68l1.13-.07v.36c0 .6-.5 1.05-1.17 1.05-.51 0-.85-.25-.85-.66zm7.6-3.28h-3.84v.75h1.44V13h.95V9.13h1.45v-.75zM70.8 13h1.83c1.07 0 1.76-.62 1.76-1.6 0-.98-.69-1.6-1.76-1.6h-.88V8.39h-.95V13zm1.74-2.44c.54 0 .88.33.88.84s-.34.85-.88.85h-.79v-1.7h.79zM40.93 30h3.86c3.16 0 5.02-1.96 5.02-5.31v-.01c0-3.34-1.87-5.25-5.02-5.25h-3.86V30zm1.89-1.6v-7.37h1.77c2.1 0 3.3 1.3 3.3 3.65v.02c0 2.4-1.17 3.7-3.3 3.7h-1.77zm11.43 1.75c2.02 0 3.17-1.2 3.4-2.4l.03-.07h-1.7l-.02.05c-.18.52-.77 1-1.68 1-1.18 0-1.93-.8-1.96-2.17h5.43v-.58c0-2.34-1.37-3.9-3.6-3.9-2.21 0-3.64 1.6-3.64 4.05v.01c0 2.47 1.4 4.01 3.74 4.01zm-.07-6.65c.97 0 1.67.62 1.8 1.85h-3.64c.15-1.2.87-1.85 1.84-1.85zm7.49 6.65c1.9 0 3.25-.98 3.25-2.44v-.01c0-1.13-.62-1.76-2.22-2.12l-1.3-.28c-.8-.19-1.1-.48-1.1-.93 0-.57.5-.95 1.3-.95.86 0 1.35.46 1.44 1.08v.06h1.7v-.08c-.07-1.34-1.2-2.4-3.13-2.4-1.88 0-3.12.95-3.12 2.38 0 1.15.75 1.88 2.24 2.2l1.29.3c.8.18 1.07.44 1.07.9v.02c0 .57-.53.93-1.42.93-.92 0-1.43-.4-1.56-1.07l-.02-.06h-1.8l.01.06c.16 1.45 1.33 2.41 3.37 2.41zm4.2-.15h1.82v-2.7l.62-.64L70.76 30h2.1l-3.2-4.42 3.08-3.34h-2.1l-2.91 3.22h-.04v-6.03h-1.82V30zm10.28.15c.37 0 .7-.03.9-.06v-1.37c-.12 0-.26.03-.44.03-.66 0-1-.24-1-1v-4.1h1.44v-1.41h-1.44v-1.97h-1.85v1.97h-1.1v1.4h1.1v4.26c0 1.6.77 2.25 2.4 2.25zm5.15 0c2.27 0 3.75-1.51 3.75-4.03v-.02c0-2.5-1.5-4.02-3.76-4.02s-3.75 1.53-3.75 4.02v.02c0 2.51 1.47 4.03 3.76 4.03zm0-1.47c-1.16 0-1.9-.93-1.9-2.56v-.02c0-1.6.75-2.55 1.89-2.55 1.16 0 1.9.93 1.9 2.55v.02c0 1.62-.74 2.56-1.89 2.56zm4.62 3.88h1.83V28.7h.03a2.6 2.6 0 0 0 2.44 1.46c1.94 0 3.19-1.53 3.19-4.02v-.01c0-2.5-1.25-4.04-3.22-4.04-1.1 0-1.96.57-2.4 1.5h-.04v-1.34h-1.83v10.32zm3.73-3.94c-1.13 0-1.92-.98-1.92-2.5 0-1.53.8-2.5 1.92-2.5 1.17 0 1.9.95 1.9 2.5 0 1.54-.73 2.5-1.9 2.5z"/></svg>