<svg xmlns="http://www.w3.org/2000/svg" width="18" height="18" viewBox="0 0 18 18"><path fill="#F0F3FA" d="M0 0h18v18H0z"/><path fill="#BF120E" fill-rule="evenodd" d="M10.6 6.19a.18.18 0 0 1-.09.06h-.02A3071.83 3071.83 0 0 1 9.02 3a.04.04 0 0 0-.06.02 233.18 233.18 0 0 0-1.43 3.2c-.04.08.02.17.07.25v.02A1033.32 1033.32 0 0 1 9 8.63a.04.04 0 0 0 .04-.01l.3-.48c.39-.6.78-1.2 1.15-1.81 0-.02.02-.02.03 0l.16.34.45.92.54 1.1c-.18.06-.5.31-.6.46-.27.44-.52.92-.76 1.44a6.2 6.2 0 0 0-.51 1.74h-.44l-.02.01V14l.02.01H14V5.07c0-.05-.03-.07-.08-.07h-2.54c-.02 0-.04 0-.05.02a9.8 9.8 0 0 0-.74 1.17Zm3.23 7.44v-.02L11.66 8.7v4.9c0 .02.01.04.03.05.01.02.03.03.05.03h2.03a.04.04 0 0 0 .04-.02v-.02Zm-7.3-4.8-.2-.14c.17-.35.36-.71.56-1.08a17.98 17.98 0 0 0 .57-1.12c.06-.12.09-.18 0-.32l-.4-.59-.4-.57V5H4.08c-.06 0-.09.02-.09.08V14h4.63c.03 0 .04-.01.04-.03v-1.63H8.2c-.03 0-.04-.02-.04-.04l-.05-.28V12c-.1-.51-.25-.98-.44-1.4-.2-.46-.45-.93-.76-1.43a1.43 1.43 0 0 0-.38-.34Zm-.2 4.78V8.68L4.17 13.6a.04.04 0 0 0 .02.06h2.09l.04-.01a.06.06 0 0 0 .01-.04ZM8.7 11h.62l.02.02v1.3l-.02.01H8.7c-.01 0-.02 0-.02-.02v-1.29c0-.01 0-.02.02-.02Z"/></svg>