<svg xmlns="http://www.w3.org/2000/svg" width="18" height="18"><path fill="#0073E6" d="M0 0h18v18H0z"/><path fill="#F72A16" d="M5.627 9.434a.258.258 0 0 1-.153.328l-1.578.573a.25.25 0 0 1-.32-.156l-.561-1.614a.258.258 0 0 1 .152-.327l1.579-.573a.25.25 0 0 1 .32.156l.56 1.613z"/><path fill="#06C92E" d="M11.88 9.435a.258.258 0 0 1-.152.327l-1.579.573a.25.25 0 0 1-.32-.156l-.56-1.613a.258.258 0 0 1 .152-.328l1.578-.573a.25.25 0 0 1 .321.156l.56 1.614z"/><path fill="#FABC22" d="M6.165 9.435a.258.258 0 0 0 .152.327l1.579.573a.25.25 0 0 0 .32-.156l.561-1.613a.258.258 0 0 0-.153-.328l-1.578-.573a.25.25 0 0 0-.32.156l-.561 1.614z"/><path fill="#00C2FC" d="M12.373 9.435a.258.258 0 0 0 .153.327l1.578.573a.25.25 0 0 0 .32-.156l.562-1.613a.258.258 0 0 0-.153-.328l-1.579-.573a.25.25 0 0 0-.32.156l-.56 1.614z"/></svg>