<svg xmlns="http://www.w3.org/2000/svg" width="18" height="19" fill="none" viewBox="0 0 38 39"><path fill="#fff" fill-rule="evenodd" d="M11.88 10.34c0-3.54 2.861-6.497 6.496-6.497 3.635 0 6.497 2.957 6.497 6.497s-2.862 6.497-6.497 6.497c-.191 0-.376.03-.55.086a18.03 18.03 0 0 0-6.368 1.447 18.534 18.534 0 0 0-6.021 4.165 19.272 19.272 0 0 0-4.024 6.234A19.801 19.801 0 0 0 0 36.122c0 1.06.831 1.921 1.856 1.921h33.411c1.025 0 1.856-.86 1.856-1.921 0-2.523-.48-5.022-1.413-7.353a19.27 19.27 0 0 0-4.023-6.234c-.725-.75-1.9-.75-2.625 0a1.97 1.97 0 0 0 0 2.718 15.418 15.418 0 0 1 3.219 4.986c.508 1.27.848 2.603 1.014 3.961H3.828c.165-1.358.505-2.69 1.014-3.96a15.417 15.417 0 0 1 3.219-4.987 14.826 14.826 0 0 1 4.817-3.332 14.412 14.412 0 0 1 5.683-1.17c.207 0 .407-.036.593-.1 5.235-.403 9.43-4.822 9.43-10.31C28.585 4.58 23.967 0 18.376 0S8.167 4.581 8.167 10.34c0 1.061.831 1.921 1.856 1.921 1.026 0 1.857-.86 1.857-1.92Z" clip-rule="evenodd"/><path fill="url(#a)" fill-rule="evenodd" d="M11.88 10.34c0-3.54 2.861-6.497 6.496-6.497 3.635 0 6.497 2.957 6.497 6.497s-2.862 6.497-6.497 6.497c-.191 0-.376.03-.55.086a18.03 18.03 0 0 0-6.368 1.447 18.534 18.534 0 0 0-6.021 4.165 19.272 19.272 0 0 0-4.024 6.234A19.801 19.801 0 0 0 0 36.122c0 1.06.831 1.921 1.856 1.921h33.411c1.025 0 1.856-.86 1.856-1.921 0-2.523-.48-5.022-1.413-7.353a19.27 19.27 0 0 0-4.023-6.234c-.725-.75-1.9-.75-2.625 0a1.97 1.97 0 0 0 0 2.718 15.418 15.418 0 0 1 3.219 4.986c.508 1.27.848 2.603 1.014 3.961H3.828c.165-1.358.505-2.69 1.014-3.96a15.417 15.417 0 0 1 3.219-4.987 14.826 14.826 0 0 1 4.817-3.332 14.412 14.412 0 0 1 5.683-1.17c.207 0 .407-.036.593-.1 5.235-.403 9.43-4.822 9.43-10.31C28.585 4.58 23.967 0 18.376 0S8.167 4.581 8.167 10.34c0 1.061.831 1.921 1.856 1.921 1.026 0 1.857-.86 1.857-1.92Z" clip-rule="evenodd"/><defs><linearGradient id="a" x1="7.955" x2="23.296" y1="16.848" y2="38.234" gradientUnits="userSpaceOnUse"><stop stop-color="rgba(1, 167, 125, .9)"/><stop offset="1" stop-color="#60a5fa"/></linearGradient></defs></svg>