<svg xmlns="http://www.w3.org/2000/svg" width="143" height="40" viewBox="0 0 143 40"><path fill="#131722" d="M23 29h-7V18H9v-7h14v18Zm21.5-18L37 29h-8l7.5-18h8ZM29 19a4 4 0 1 0 0-8 4 4 0 0 0 0 8Zm25.48 10.95h1.92v-7.5h2.5v-1.82H52v1.81h2.48v7.5Zm4.42 0h1.8V26.8c0-1.09.57-1.74 1.42-1.74.3 0 .54.05.82.14v-1.8a1.91 1.91 0 0 0-.6-.08c-.74 0-1.41.48-1.63 1.13V23.4h-1.8v6.56Zm7.49.15c.9 0 1.58-.47 1.89-.89v.74h1.8v-6.56h-1.8v.73c-.3-.42-.99-.88-1.9-.88-1.74 0-3.08 1.58-3.08 3.43s1.34 3.42 3.09 3.42Zm.38-1.65c-1 0-1.66-.75-1.66-1.78 0-1.04.66-1.79 1.66-1.79 1 0 1.65.75 1.65 1.79 0 1.03-.66 1.78-1.65 1.78Zm7.58 1.65c.9 0 1.6-.47 1.9-.89v.74h1.79V20.1h-1.8v4.01c-.3-.42-.98-.88-1.89-.88-1.74 0-3.08 1.58-3.08 3.43s1.34 3.42 3.08 3.42Zm.38-1.65c-1 0-1.65-.75-1.65-1.78 0-1.04.66-1.79 1.65-1.79 1 0 1.66.75 1.66 1.79 0 1.03-.66 1.78-1.66 1.78Zm5.82-6.14c.64 0 1.15-.51 1.15-1.14a1.15 1.15 0 0 0-2.3 0c0 .63.53 1.14 1.15 1.14Zm-.9 7.64h1.8v-6.56h-1.8v6.56Zm3.4 0h1.8v-3.2c0-1.26.61-1.87 1.45-1.87.75 0 1.16.58 1.16 1.52v3.55h1.8V26.1c0-1.7-.95-2.86-2.54-2.86a2.2 2.2 0 0 0-1.87.9v-.75h-1.8v6.56Zm10.78-1.71c-.9 0-1.67-.68-1.67-1.68 0-1 .76-1.68 1.67-1.68.9 0 1.67.67 1.67 1.68 0 1-.76 1.68-1.67 1.68Zm-.21 4.58c2 0 3.53-1.02 3.53-3.38v-6.05h-1.8v.73a2.3 2.3 0 0 0-1.9-.88c-1.72 0-3.1 1.47-3.1 3.32 0 1.84 1.38 3.3 3.1 3.3.84 0 1.55-.37 1.9-.86v.45c0 1.05-.7 1.8-1.76 1.8-.73 0-1.47-.25-2.04-.82l-.99 1.34a4.45 4.45 0 0 0 3.06 1.05Zm7.33-2.87h1.7l3.85-9.32h-2.1l-2.6 6.47-2.63-6.47H97.1l3.84 9.32Zm7.2-7.64c.64 0 1.15-.51 1.15-1.14 0-.63-.5-1.14-1.15-1.14a1.14 1.14 0 1 0 0 2.28Zm-.9 7.64h1.8v-6.56h-1.8v6.56Zm6.45.15c1.38 0 2.43-.59 3.05-1.48l-1.34-1c-.3.46-.86.83-1.69.83-.87 0-1.64-.48-1.75-1.36h4.91c.04-.28.03-.46.03-.62 0-2.14-1.51-3.23-3.23-3.23-2 0-3.45 1.49-3.45 3.43 0 2.07 1.52 3.42 3.48 3.42Zm-1.66-4.23c.17-.8.92-1.14 1.59-1.14s1.32.35 1.48 1.14h-3.07Zm11.6 4.08h1.79l2.16-6.56h-1.93l-1.23 4.2-1.34-4.2h-1.38l-1.32 4.2-1.25-4.2h-1.91l2.17 6.56h1.79l1.22-3.73 1.23 3.73ZM53.92 16h1v-5.11h1.78v-.96h-4.54v.96h1.76V16Zm8.94-3.04c0-1.75-1.4-3.13-3.14-3.13a3.12 3.12 0 0 0-3.13 3.13c0 1.76 1.39 3.14 3.13 3.14a3.12 3.12 0 0 0 3.14-3.14Zm-5.27 0a2.13 2.13 0 1 1 4.26 0 2.13 2.13 0 1 1-4.26 0Zm7.96-3.03h-1.93V16h1v-2.1h.93c1.25 0 2.1-.87 2.1-1.99s-.85-1.98-2.1-1.98Zm0 3.03h-.93v-2.1h.92c.71 0 1.13.46 1.13 1.05 0 .6-.42 1.05-1.13 1.05Zm6.26-3.03h-3.5V16h1v-5.11h2.5v-.96Zm.96 6.12c.2.03.35.05.66.05.82 0 1.34-.4 1.87-1.45l2.44-4.72h-1.12l-1.8 3.5-1.8-3.5h-1.14l2.37 4.6c-.25.5-.56.62-.95.62-.2 0-.37-.01-.53-.03v.93Zm6.65-7.93c0 .88.64 1.42 1.42 1.42.78 0 1.42-.54 1.42-1.42h-.66c0 .5-.3.83-.76.83s-.76-.32-.76-.83h-.66ZM78.12 16h.86l3.42-4.37V16h1V9.93h-.87l-3.41 4.35V9.93h-1V16Zm7.61 0h1v-5.11h1.77v-.96h-4.53v.96h1.76V16Zm3.33 0h3.65v-.96h-2.65V13.4h2.14v-.96h-2.14V10.9h2.65v-.96h-3.65V16Zm6.13 0h1v-2.6h3V16h1V9.93h-1v2.51h-3V9.93h-1V16Zm5.45 0h1.03l.69-1.6h2.72l.69 1.6h1.04l-2.65-6.07h-.87L100.64 16Zm2.1-2.48.98-2.25.97 2.25h-1.95Z"/></svg>