<svg xmlns="http://www.w3.org/2000/svg" width="25" height="25" fill="none" style="max-width:25px" viewBox="0 0 40 40"><path fill="#fff" fill-rule="evenodd" d="M11.152 6.83A5.832 5.832 0 0 1 16.983 1a5.832 5.832 0 0 1 5.83 5.83v.938h5.169a4.984 4.984 0 0 1 4.984 4.985v5.168h.938a5.832 5.832 0 0 1 5.83 5.83 5.832 5.832 0 0 1-5.83 5.831h-.938v5.168a4.984 4.984 0 0 1-4.985 4.984h-8.03v-4.138a2.97 2.97 0 0 0-2.968-2.968 2.97 2.97 0 0 0-2.968 2.968v4.138h-8.03A4.984 4.984 0 0 1 1 34.75l.01-8.03h4.13a2.97 2.97 0 0 0 2.968-2.969 2.97 2.97 0 0 0-2.968-2.968H1.006l.01-8.03v-.001c.002-2.743 2.205-4.984 4.969-4.984h5.167v-.937Zm5.831-2.629a2.631 2.631 0 0 0-2.63 2.63v4.138H5.986c-.976 0-1.767.788-1.767 1.784l-.006 4.83h.927a6.172 6.172 0 0 1 6.169 6.168 6.172 6.172 0 0 1-6.17 6.17h-.93L4.2 34.75c0 .986.798 1.783 1.784 1.783h4.829v-.937a6.172 6.172 0 0 1 6.17-6.17 6.172 6.172 0 0 1 6.168 6.17v.937h4.83c.985 0 1.783-.798 1.783-1.783v-8.37h4.139a2.631 2.631 0 0 0 2.63-2.629 2.631 2.631 0 0 0-2.63-2.63h-4.139v-8.368c0-.986-.798-1.784-1.783-1.784h-8.37V6.831a2.631 2.631 0 0 0-2.629-2.63Z" clip-rule="evenodd"/><path fill="url(#a)" fill-rule="evenodd" d="M11.152 6.83A5.832 5.832 0 0 1 16.983 1a5.832 5.832 0 0 1 5.83 5.83v.938h5.169a4.984 4.984 0 0 1 4.984 4.985v5.168h.938a5.832 5.832 0 0 1 5.83 5.83 5.832 5.832 0 0 1-5.83 5.831h-.938v5.168a4.984 4.984 0 0 1-4.985 4.984h-8.03v-4.138a2.97 2.97 0 0 0-2.968-2.968 2.97 2.97 0 0 0-2.968 2.968v4.138h-8.03A4.984 4.984 0 0 1 1 34.75l.01-8.03h4.13a2.97 2.97 0 0 0 2.968-2.969 2.97 2.97 0 0 0-2.968-2.968H1.006l.01-8.03v-.001c.002-2.743 2.205-4.984 4.969-4.984h5.167v-.937Zm5.831-2.629a2.631 2.631 0 0 0-2.63 2.63v4.138H5.986c-.976 0-1.767.788-1.767 1.784l-.006 4.83h.927a6.172 6.172 0 0 1 6.169 6.168 6.172 6.172 0 0 1-6.17 6.17h-.93L4.2 34.75c0 .986.798 1.783 1.784 1.783h4.829v-.937a6.172 6.172 0 0 1 6.17-6.17 6.172 6.172 0 0 1 6.168 6.17v.937h4.83c.985 0 1.783-.798 1.783-1.783v-8.37h4.139a2.631 2.631 0 0 0 2.63-2.629 2.631 2.631 0 0 0-2.63-2.63h-4.139v-8.368c0-.986-.798-1.784-1.783-1.784h-8.37V6.831a2.631 2.631 0 0 0-2.629-2.63Z" clip-rule="evenodd"/><defs><linearGradient id="a" x1="9.3" x2="24.794" y1="18.154" y2="40.288" gradientUnits="userSpaceOnUse"><stop stop-color="rgba(1, 167, 125, .9)"/><stop offset="1" stop-color="#60a5fa"/></linearGradient></defs></svg>