<svg xmlns="http://www.w3.org/2000/svg" width="18" height="18"><path fill="#021483" d="M0 0h18v18H0z"/><path fill="#fff" d="M5 14V4h8v10H5zm7-1V5H6v8h6z"/><path fill="#fff" d="M12.367 4.63v.438L8.33 7.602a.643.643 0 0 0-.308.505c-.013.207.087.385.24.542.549.559.9.868.9.868.132.115.239.263.23.437-.009.174-.134.315-.273.41-.381.263-.77.514-1.165.755a.85.85 0 0 0 .067-.377.68.68 0 0 0-.155-.31L6.813 9.428s-.997-.712.087-1.445c.056-.039 5.467-3.353 5.467-3.353z"/><path fill="#fff" d="M5.451 13.5v-.437l4.027-2.52c.37-.224.38-.728.067-1.047-.546-.555-.899-.869-.899-.869-.109-.117-.191-.18-.219-.306-.047-.215.079-.41.265-.537.617-.424 1.167-.758 1.167-.758a.89.89 0 0 0-.064.377.658.658 0 0 0 .151.313l1.058 1s1.004.713-.088 1.45L5.45 13.5z"/></svg>