<svg xmlns="http://www.w3.org/2000/svg" width="18" height="18"><path fill="#108CBB" d="M0 0h18v18H0z"/><path fill="#CAA870" fill-rule="evenodd" d="M15.755 9c0 .969-.69 1.9-1.923 2.605-1.224.7-2.932 1.14-4.832 1.14s-3.608-.44-4.832-1.14C2.935 10.901 2.245 9.97 2.245 9c0-.969.69-1.9 1.923-2.605C5.392 5.695 7.1 5.255 9 5.255s3.608.44 4.832 1.14c1.233.704 1.923 1.636 1.923 2.605zM16 9c0 2.21-3.134 4-7 4s-7-1.79-7-4 3.134-4 7-4 7 1.79 7 4zm-1.948-1h-.342a31.283 31.283 0 0 0-.685 0h-.157c-.455-.646-1.059-1.157-1.77-1.436a4.41 4.41 0 0 0-.645-.213l-.003-.001c-.024-.006-.052-.013-.052-.047 0-.026.021-.034.042-.041l.007-.003.275-.093a8.75 8.75 0 0 0 .636-.23c.26-.11.497-.048.742.027.527.16 1.043.344 1.532.609.59.32 1.106.859 1.5 1.428h-.065a41.854 41.854 0 0 0-.676 0h-.339zm-.007 2h1.041a4.08 4.08 0 0 1-.78.831c-.536.413-1.127.716-1.745.962a8.934 8.934 0 0 1-1.487.444 8.847 8.847 0 0 1-1.17.164c-.248.02-.495.018-.742.017H8.83c-.02 0-.04 0-.06-.002-.024 0-.054-.002-.058-.03-.006-.032.019-.036.04-.04.005 0 .01-.002.014-.003.363-.1.72-.217 1.073-.35.793-.3 1.567-.647 2.263-1.157.315-.232.596-.5.813-.836h1.131z"/><path fill="#fff" d="M2.984 8h2.239c.206-.36.487-.721.81-.965.417-.315.875-.544 1.354-.74.678-.28 1.38-.47 2.086-.653a.248.248 0 0 1 .037-.007c.038-.005.077-.01.074-.051-.003-.042-.059-.041-.102-.04h-.017c-.375-.008-.75-.017-1.125.013-.738.056-1.464.177-2.177.375-.664.185-1.306.425-1.903.784-.5.3-.95.775-1.276 1.284zm7.656.597h-.023v-.142h-.134v.142h-.02a.46.46 0 0 0-.22.053.385.385 0 0 0-.206.354.385.385 0 0 0 .207.354.46.46 0 0 0 .22.052h.02v.136h.133V9.41h.026a.468.468 0 0 0 .215-.053.387.387 0 0 0 .151-.146.405.405 0 0 0 .055-.209.396.396 0 0 0-.207-.351.458.458 0 0 0-.217-.054zm-.392.185a.288.288 0 0 1 .215-.08h.02v.603h-.018a.292.292 0 0 1-.217-.08.302.302 0 0 1-.079-.221.3.3 0 0 1 .08-.222zm.37.523v-.603h.017a.29.29 0 0 1 .218.08.303.303 0 0 1 .078.22.307.307 0 0 1-.078.222.283.283 0 0 1-.215.08h-.02zm-7.11-.12a.366.366 0 0 1-.123.246.414.414 0 0 1-.275.087.378.378 0 0 1-.298-.128.502.502 0 0 1-.112-.343V8.95c0-.093.017-.176.052-.247A.38.38 0 0 1 2.9 8.54a.424.424 0 0 1 .222-.058c.112 0 .202.03.269.09s.106.142.117.248H3.37c-.012-.08-.038-.138-.078-.174a.242.242 0 0 0-.169-.054.253.253 0 0 0-.208.094.42.42 0 0 0-.075.268v.097c0 .11.024.197.071.261a.234.234 0 0 0 .2.097.274.274 0 0 0 .177-.05c.041-.033.069-.092.082-.175h.14zm.55-.104.243-.585h.16l-.371.84a.442.442 0 0 1-.07.114.225.225 0 0 1-.077.051.296.296 0 0 1-.108.018.256.256 0 0 1-.073-.007l.004-.105.066.003a.12.12 0 0 0 .112-.07l.018-.036.028-.062-.358-.746h.155l.272.585zm.708.423v-.395h.247c.12 0 .21-.026.274-.078a.278.278 0 0 0 .096-.227.28.28 0 0 0-.098-.223.398.398 0 0 0-.27-.085h-.388v1.008h.139zm.249-.503h-.25v-.395h.258a.24.24 0 0 1 .162.056c.04.036.06.084.06.144a.18.18 0 0 1-.06.145.257.257 0 0 1-.17.05zm1.196-.395h-.506v.898h-.14V8.496h.646v.11zm.773-.11-.241.585-.272-.585h-.155l.357.746-.027.062-.018.036a.12.12 0 0 1-.113.07l-.065-.003-.005.105a.255.255 0 0 0 .073.007c.044 0 .08-.006.11-.018a.225.225 0 0 0 .076-.051.442.442 0 0 0 .07-.114l.371-.84h-.16zm1.066.11h-.338v.898h-.138v-.898h-.336v-.11h.812v.11zm.824.898h.139V8.496h-.14v.433h-.529v-.433h-.138v1.008h.138v-.466h.53v.466zm.979-.466h-.455v.357h.528v.109H9.26V8.496h.66v.11h-.521v.323h.455v.11zm2.111-.432h-.337v.898h-.138v-.898h-.337v-.11h.813v.11zm.295.432h.455V8.93h-.455v-.323h.521v-.11h-.66v1.008h.668v-.109h-.53v-.357zm1.352-.432h-.506v.898h-.14V8.496h.646v.11zm.073.898.099-.263h.44l.1.263h.142l-.402-1.008h-.121l-.401 1.008h.143zm.498-.372h-.358l.179-.472.178.472zm.963-.365a.152.152 0 0 0-.061-.128.27.27 0 0 0-.171-.047.244.244 0 0 0-.155.049.147.147 0 0 0-.062.12h-.139a.24.24 0 0 1 .046-.144.3.3 0 0 1 .128-.099.448.448 0 0 1 .182-.036c.117 0 .208.026.273.076a.25.25 0 0 1 .098.21c0 .047-.015.09-.045.128a.299.299 0 0 1-.125.09c.124.04.186.12.186.237 0 .09-.035.162-.106.215a.455.455 0 0 1-.281.08.496.496 0 0 1-.19-.035.307.307 0 0 1-.133-.102.26.26 0 0 1-.048-.157h.139c0 .053.022.098.065.133a.26.26 0 0 0 .167.053.293.293 0 0 0 .18-.05.159.159 0 0 0 .068-.134c0-.118-.076-.179-.229-.18h-.13v-.11h.13a.258.258 0 0 0 .16-.046.15.15 0 0 0 .053-.123zM3.96 10h.335c.224.001.449.002.672 0h.168c.325.48.721.906 1.212 1.198a5.006 5.006 0 0 0 1.147.485c.028.005.058.01.06.047 0 .038-.032.045-.062.05l-.022.006-.359.126c-.185.065-.37.13-.555.197-.215.082-.408.032-.61-.029a8.11 8.11 0 0 1-1.057-.396A4.957 4.957 0 0 1 2.886 10H3.96z"/><path fill="#1B75A2" d="M5.586 8h2.337c.313-.47.718-.896 1.165-1.215a9.185 9.185 0 0 1 1.846-.993l.02-.007c.027-.009.057-.018.052-.051-.006-.032-.034-.031-.061-.03-.009 0-.017 0-.025-.002-.295-.03-.59 0-.883.04a8.293 8.293 0 0 0-1.482.352c-.733.24-1.44.549-2.093.976-.35.227-.674.586-.927.93h.051zm1.09 2H5.434c.166.238.365.483.586.66.549.44 1.175.699 1.84.86a.567.567 0 0 0 .344-.003 6.07 6.07 0 0 0 .8-.369c.006-.004.014-.006.023-.01.024-.008.05-.017.042-.05-.006-.029-.037-.033-.066-.037A1.814 1.814 0 0 1 7.401 10h-.128c-.199.003-.398.002-.598 0z"/><path fill="#B39265" d="M11.027 8h1.486c-.029-.037-.057-.098-.086-.16a.83.83 0 0 0-.103-.184c-.586-.659-1.35-.972-2.158-1.193a.16.16 0 0 0-.107.007c-.274.135-.535.29-.78.477-.046.036-.05.069-.004.109.045.038.088.078.132.118l.131.12c.224.189.445.464.62.706h.166c.234-.003.469-.002.703 0zm-3.44 4.096-.274.11v.012l.002.017c.092-.015.184-.017.275-.019a2.616 2.616 0 0 0 .567-.059c.053-.012.107-.022.162-.032.084-.015.168-.031.252-.055.099-.028.199-.05.298-.073.128-.029.256-.057.38-.098l.058-.02c.218-.072.438-.145.654-.224.409-.15.803-.332 1.188-.536.305-.16.593-.35.864-.567.181-.146.353-.362.492-.552h-1.81c-.249.57-1.036 1.095-1.53 1.371a11.439 11.439 0 0 1-1.304.615l-.274.11z"/></svg>