<svg xmlns="http://www.w3.org/2000/svg" fill="none" class="ait-w-5 ait-h-5 ait-chat_pdf_icon" viewBox="0 0 16 16"><path fill="currentColor" fill-opacity=".5" fill-rule="evenodd" d="M3.791.29a1.6 1.6 0 0 0-1.6 1.6v.445a1.6 1.6 0 0 0-1.35 1.58v.703a1.6 1.6 0 0 0 1.35 1.58V13.4a1.6 1.6 0 0 0 1.6 1.6H12.6a1.6 1.6 0 0 0 1.6-1.6V1.89a1.6 1.6 0 0 0-1.6-1.6H3.791Zm-.4 5.928V13.4c0 .22.18.4.4.4H12.6a.4.4 0 0 0 .4-.4V1.89a.4.4 0 0 0-.4-.4H3.791a.4.4 0 0 0-.4.4v.426h2.454a1.6 1.6 0 0 1 1.6 1.6v.702a1.6 1.6 0 0 1-1.6 1.6H3.39Zm-1.35-2.302a.4.4 0 0 1 .4-.4h3.404a.4.4 0 0 1 .4.4v.702a.4.4 0 0 1-.4.4H2.44a.4.4 0 0 1-.4-.4v-.702Z" clip-rule="evenodd"/><path fill="currentColor" d="M11.215 11.166a2.628 2.628 0 0 1-1.527-.62 14.74 14.74 0 0 0-2.456.786c-.64 1.138-1.238 1.717-1.754 1.717a.537.537 0 0 1-.31-.083.61.61 0 0 1-.35-.558c0-.186.041-.704 2.002-1.552A14.78 14.78 0 0 0 7.913 8.29c-.247-.497-.784-1.718-.412-2.338a.656.656 0 0 1 .64-.332c.206 0 .412.104.536.27.268.372.248 1.158-.103 2.317.33.62.763 1.18 1.28 1.656a6.945 6.945 0 0 1 1.3-.145c.97.02 1.114.476 1.093.744 0 .704-.68.704-1.032.704ZM5.437 12.45l.062-.02c.289-.104.516-.311.68-.58a1.632 1.632 0 0 0-.742.6Zm2.745-6.208H8.12c-.021 0-.062 0-.083.02-.082.353-.02.725.124 1.056.124-.352.124-.724.02-1.076Zm.144 3-.02.042-.021-.02a17.06 17.06 0 0 1-.62 1.406l.042-.02v.041c.454-.166.95-.31 1.403-.414l-.02-.02h.061a6.336 6.336 0 0 1-.825-1.014Zm2.807 1.098c-.186 0-.351 0-.537.04.206.104.413.146.619.166a.91.91 0 0 0 .413-.041c0-.062-.083-.165-.495-.165Z"/></svg>