<svg xmlns="http://www.w3.org/2000/svg" width="18" height="18"><path fill="#F0F3FA" d="M0 0h18v18H0z"/><path fill="url(#a)" d="M9 10c-1.8 0-3-1.38-3-3 0-1.6 1.2-3 3-3s3 1.43 3 3c0 1.67-1.2 3-3 3z"/><path fill="url(#b)" d="M12 11.67V12c0 .58-1.34 1-3 1-1.65 0-3-.42-3-1v-.3l6-.03z"/><path fill="url(#c)" d="M12 11.67c0 .58-1.35 1.02-3 1.03-1.66 0-3-.45-3-1.03 0-.58 1.35-1.06 3-1.07 1.65 0 3 .49 3 1.07z"/><path fill="url(#d)" d="M6 13.65c0-.07 1.35-.15 3-.15s3 .08 3 .15v.23c0 .06-1.35.12-3 .12s-3-.06-3-.12v-.23z"/><defs><linearGradient id="a" x1="8.27" x2="12.9" y1="8.04" y2="1.88" gradientUnits="userSpaceOnUse"><stop offset=".06" stop-color="#E51837"/><stop offset=".57" stop-color="#F25027"/></linearGradient><linearGradient id="b" x1="9.97" x2="12.06" y1="12.48" y2="13.53" gradientUnits="userSpaceOnUse"><stop stop-color="#C31837"/><stop offset="1" stop-color="#B02837"/></linearGradient><linearGradient id="c" x1="8.38" x2="11.32" y1="12.32" y2="8.3" gradientUnits="userSpaceOnUse"><stop offset=".07" stop-color="#E51837"/><stop offset=".48" stop-color="#F0472A"/></linearGradient><linearGradient id="d" x1="9" x2="8.91" y1="13.96" y2="14.61" gradientUnits="userSpaceOnUse"><stop stop-color="#C21836"/><stop offset="1" stop-color="#B02837"/></linearGradient></defs></svg>