<svg xmlns="http://www.w3.org/2000/svg" viewBox="1.219 0.733 11.563 11.82"><g clip-path="url(#clip0_11821_42642)"><path stroke="currentColor" stroke-width="1.2" d="M2.182 6.772h9.636m-9.636 0a.964.964 0 0 1-.963-.964v-.963c0-.533.43-.964.963-.964h9.636c.532 0 .963.431.963.964v.963a.964.964 0 0 1-.963.964m-9.636 0v4.818c0 .532.431.963.964.963h7.708a.964.964 0 0 0 .964-.963V6.772M7 3.88l2.313-.77c.364-.122.65-.408.77-.772.318-.953-.588-1.86-1.541-1.541-.364.12-.65.406-.771.77L7 3.881Zm0 0-2.313-.77A1.219 1.219 0 1 1 6.23 1.568L7 3.88Zm0 0v8.672"/></g></svg>