<svg xmlns="http://www.w3.org/2000/svg" width="18" height="18"><path fill="#F0F3FA" d="M0 9a9 9 0 1 1 18 0A9 9 0 0 1 0 9z"/><path fill="#1F1F20" d="M15.05 6a9.7 9.7 0 0 0-3.6 1.03 6.15 6.15 0 0 0-2.93 3.1c-.16.39-.22.65-.23.97-.01.36.08.77.51.88.1.03.35.03.46 0 .45-.12.86-.53 1.16-1.17.14-.3.23-.64.37-.95.69-1.6 1.98-2.8 3.93-3.68a14.56 14.56 0 0 1 .33-.17z"/><path fill="#22C2FD" d="M12.4 6a9.7 9.7 0 0 0-3.6 1.03 6.15 6.15 0 0 0-2.92 3.1c-.17.39-.23.65-.24.97-.01.36.08.77.51.88.1.03.35.03.46 0 .45-.12.86-.53 1.16-1.17.15-.3.23-.64.37-.95.7-1.6 1.98-2.8 3.93-3.68A14.52 14.52 0 0 1 12.4 6z"/><path fill="#A8A8A8" d="M9.77 6a9.7 9.7 0 0 0-3.61 1.03 6.15 6.15 0 0 0-2.92 3.1c-.17.39-.23.65-.24.97-.01.36.08.77.52.88.1.03.34.03.45 0 .45-.12.86-.53 1.16-1.17.15-.3.23-.64.37-.95.7-1.6 1.99-2.8 3.93-3.68A14.36 14.36 0 0 1 9.77 6z"/></svg>