<svg xmlns="http://www.w3.org/2000/svg" width="18" height="18" viewBox="0 0 18 18"><path fill="#393939" d="M0 0h18v18H0z"/><path fill="url(#a)" d="M4.97 5h10.07v2H4.97z"/><path fill="url(#b)" d="M5 8h11v2H5z"/><path fill="url(#c)" d="M5.3 11h11.05v2H5.3v-2Z"/><path fill="#fff" d="M12.44 12.76a.27.27 0 0 1-.26.24h-1.21a.26.26 0 0 1-.22-.13L8.7 9.5l-2.03 3.37a.26.26 0 0 1-.23.13H5.25a.27.27 0 0 1-.26-.24L4 5.3c-.02-.16.1-.31.26-.31h1.05c.14 0 .25.1.27.24l.74 5.53 1.52-2.62c.05-.08.14-.15.23-.15h1.29c.09 0 .17.07.22.15l1.53 2.62.74-5.53A.27.27 0 0 1 12.1 5h1.05c.16 0 .28.15.26.31l-.98 7.45Z"/><defs><linearGradient id="a" x1="6.76" x2="14.27" y1="6" y2="6" gradientUnits="userSpaceOnUse"><stop offset=".86" stop-color="#CA1A01"/><stop offset="1" stop-color="#CA1A01" stop-opacity="0"/></linearGradient><linearGradient id="b" x1="9.43" x2="16" y1="9" y2="9" gradientUnits="userSpaceOnUse"><stop offset=".75" stop-color="#CA1A01"/><stop offset="1" stop-color="#CA1A01" stop-opacity="0"/></linearGradient><linearGradient id="c" x1="5.99" x2="15.37" y1="13" y2="13" gradientUnits="userSpaceOnUse"><stop offset=".82" stop-color="#CA1A01"/><stop offset=".97" stop-color="#CA1A01" stop-opacity="0"/></linearGradient></defs></svg>