<svg xmlns="http://www.w3.org/2000/svg" width="20" height="22" fill="none" viewBox="0 0 43 40"><path fill="#fff" fill-rule="evenodd" d="M22.842 3.044a10.826 10.826 0 0 1 15.185.132 10.844 10.844 0 0 1 .132 15.194l-.022.023-5.42 5.426a10.832 10.832 0 0 1-8.435 3.149 10.824 10.824 0 0 1-7.9-4.32 1.797 1.797 0 0 1 2.878-2.151 7.241 7.241 0 0 0 5.279 2.887 7.23 7.23 0 0 0 5.635-2.105l5.41-5.414a7.252 7.252 0 0 0-.1-10.15 7.233 7.233 0 0 0-10.135-.097L22.25 8.702a1.797 1.797 0 0 1-2.535-2.547l3.126-3.111Zm-8.814 10.171a10.823 10.823 0 0 1 12.46 3.664 1.797 1.797 0 0 1-2.878 2.151 7.24 7.24 0 0 0-5.279-2.887 7.228 7.228 0 0 0-5.635 2.105l-5.409 5.414a7.252 7.252 0 0 0 .098 10.15 7.233 7.233 0 0 0 10.135.098l3.078-3.081a1.797 1.797 0 0 1 2.542 2.54l-3.112 3.115a10.826 10.826 0 0 1-15.185-.133 10.845 10.845 0 0 1-.132-15.194l.022-.023 5.42-5.425c1.098-1.1 2.42-1.95 3.875-2.494Z" clip-rule="evenodd"/><path fill="url(#a)" fill-rule="evenodd" d="M22.842 3.044a10.826 10.826 0 0 1 15.185.132 10.844 10.844 0 0 1 .132 15.194l-.022.023-5.42 5.426a10.832 10.832 0 0 1-8.435 3.149 10.824 10.824 0 0 1-7.9-4.32 1.797 1.797 0 0 1 2.878-2.151 7.241 7.241 0 0 0 5.279 2.887 7.23 7.23 0 0 0 5.635-2.105l5.41-5.414a7.252 7.252 0 0 0-.1-10.15 7.233 7.233 0 0 0-10.135-.097L22.25 8.702a1.797 1.797 0 0 1-2.535-2.547l3.126-3.111Zm-8.814 10.171a10.823 10.823 0 0 1 12.46 3.664 1.797 1.797 0 0 1-2.878 2.151 7.24 7.24 0 0 0-5.279-2.887 7.228 7.228 0 0 0-5.635 2.105l-5.409 5.414a7.252 7.252 0 0 0 .098 10.15 7.233 7.233 0 0 0 10.135.098l3.078-3.081a1.797 1.797 0 0 1 2.542 2.54l-3.112 3.115a10.826 10.826 0 0 1-15.185-.133 10.845 10.845 0 0 1-.132-15.194l.022-.023 5.42-5.425c1.098-1.1 2.42-1.95 3.875-2.494Z" clip-rule="evenodd"/><defs><linearGradient id="a" x1="10.142" x2="25.952" y1="17.505" y2="40.092" gradientUnits="userSpaceOnUse"><stop stop-color="rgba(1, 167, 125, .9)"/><stop offset="1" stop-color="#60a5fa"/></linearGradient></defs></svg>